<svg xmlns="http://www.w3.org/2000/svg" xmlns:xlink="http://www.w3.org/1999/xlink" version="1.1" x="0px" y="0px" viewBox="0 0 100 100" enable-background="new 0 0 100 100" xml:space="preserve"><g><path d="M80.629,34.167h-7.084V18.749v-1.251h-1.25h-7.082v-7.084v-1.25h-1.25h-8.334h-1.251v1.25v15.418h-7.083h-1.251v1.25V42.5   H38V18.749v-0.666l-0.569-0.375L20.058,6.27L18.122,5v2.312V93.75V95h1.251h61.256h1.25v-1.251V35.417v-1.25H80.629z    M46.044,45.001v47.497H38V45.001H46.044z M20.622,88.289h9.619v-2.501h-9.619v-5.96h9.619v-2.501h-9.619v-7.384h4.004v-2.5h-4.004   v-6.445h9.619v-2.501h-9.619V36.289h5.408v-2.501h-5.408V28.29h9.619v-2.5h-9.619V9.623l14.876,9.791v24.333v1.254v47.497H20.622   V88.289z M79.377,92.498h-3.172V55.843h-2.502v36.655h-5.225V41.703h-2.511v50.795h-17.42V78.405h10.629v-2.503H48.549V60.998   h10.629v-2.501H48.549v-15.99h-0.004v-5.274h10.633v-2.501H48.544v-6.398h7.084h1.25v-1.251V11.665h5.834v7.084v1.25h1.25h7.08   v15.418v1.251h1.252h7.082L79.377,92.498L79.377,92.498z"/><rect x="73.703" y="42.334" width="2.502" height="8.334"/><rect x="65.998" y="29.863" width="2.451" height="8.148"/><rect x="65.975" y="23.085" width="2.502" height="2.661"/><rect x="27.939" y="33.787" width="2.827" height="2.501"/><rect x="26.187" y="67.443" width="4.114" height="2.5"/></g></svg>