<svg xmlns="http://www.w3.org/2000/svg" xmlns:xlink="http://www.w3.org/1999/xlink" version="1.1" x="0px" y="0px" viewBox="0 0 64 64" enable-background="new 0 0 64 64" xml:space="preserve"><g><g><path fill="#000000" d="M11.7,22.3c5.3,0,9.7,4.3,9.7,9.7c0,5.3-4.3,9.7-9.7,9.7C6.3,41.7,2,37.3,2,32C2,26.7,6.3,22.3,11.7,22.3     M11.7,20.3C5.2,20.3,0,25.5,0,32s5.2,11.7,11.7,11.7S23.4,38.5,23.4,32S18.1,20.3,11.7,20.3L11.7,20.3z"></path><path fill="#000000" d="M52.3,2c5.3,0,9.7,4.3,9.7,9.7s-4.3,9.7-9.7,9.7c-5.3,0-9.7-4.3-9.7-9.7S47,2,52.3,2 M52.3,0    c-6.5,0-11.7,5.2-11.7,11.7s5.2,11.7,11.7,11.7c6.5,0,11.7-5.2,11.7-11.7S58.8,0,52.3,0L52.3,0z"></path><path fill="#000000" d="M52.3,42.6c5.3,0,9.7,4.3,9.7,9.7c0,5.3-4.3,9.7-9.7,9.7c-5.3,0-9.7-4.3-9.7-9.7    C42.6,47,47,42.6,52.3,42.6 M52.3,40.6c-6.5,0-11.7,5.2-11.7,11.7c0,6.5,5.2,11.7,11.7,11.7C58.8,64,64,58.8,64,52.3    C64,45.9,58.8,40.6,52.3,40.6L52.3,40.6z"></path><rect x="30.7" y="9.7" transform="matrix(0.4386 0.8987 -0.8987 0.4386 37.4845 -16.1939)" fill="#000000" width="2" height="24.4"></rect><rect x="19.5" y="41.6" transform="matrix(0.8987 0.4386 -0.4386 0.8987 21.9075 -9.5863)" fill="#000000" width="24.4" height="2"></rect></g></g></svg>