<svg xmlns="http://www.w3.org/2000/svg" xmlns:xlink="http://www.w3.org/1999/xlink" version="1.1" x="0px" y="0px" viewBox="0 0 48 48" enable-background="new 0 0 48 48" xml:space="preserve"><g><path d="M47.7,39.5L24.9,18.8c-1.3-1.2-2.1-2.8-2-4.4c0-0.6,0-1.2-0.1-1.7c0,0,0,0,0,0c1.5,0,3-0.6,4-1.7c1.1-1.1,1.7-2.5,1.7-4.1   s-0.6-3-1.7-4.1s-2.5-1.7-4.1-1.7s-3,0.6-4.1,1.7C17.6,4,17,5.5,17.1,7.1c-2.6-0.4-5.5,0.7-7.6,2.8c-1.3,1.3-2.3,3-2.7,4.7   c-0.3,1.3-1.3,2.2-2.7,2.4c-1.1,0.2-2.1,0.6-2.9,1.4c-0.8,0.8-1.3,1.8-1.3,3c0,1.2,0.5,2.3,1.3,3.2l4.1,4.1c0.8,0.8,2,1.3,3.1,1.3   c1.2,0,2.3-0.5,3.1-1.3c0.7-0.8,1.2-1.7,1.4-2.8c0.2-1.4,1.2-2.5,2.5-2.8c2-0.5,4.1,0.2,5.4,1.7l19.7,21.7c0.2,0.2,0.4,0.3,0.7,0.3   c0,0,0,0,0,0c0.3,0,0.5-0.1,0.7-0.3l5.7-5.7c0.2-0.2,0.3-0.5,0.3-0.7C48,39.9,47.9,39.7,47.7,39.5z M41.4,44.4l-19-20.9   c-1.4-1.6-3.5-2.5-5.6-2.5c-0.6,0-1.2,0.1-1.8,0.2c-2,0.5-3.6,2.2-3.9,4.4c-0.1,0.6-0.4,1.2-0.8,1.7c-0.8,0.9-2.4,0.9-3.3,0   l-4.1-4.1C2.2,22.7,2,22.1,2,21.5c0-0.6,0.2-1.2,0.7-1.6c0.5-0.5,1.1-0.8,1.8-0.9c2.2-0.3,3.9-1.8,4.3-3.9c0.3-1.4,1-2.7,2.1-3.8   c1.5-1.5,3.3-2.3,5.2-2.3c0.7,0,1.3,0.1,1.9,0.3c0.4,0.1,0.8,0.1,1.1-0.2c0.3-0.3,0.4-0.7,0.2-1.1c-0.5-1.4-0.2-2.9,0.9-3.9   c1.4-1.4,3.9-1.4,5.3,0c0.7,0.7,1.1,1.7,1.1,2.7s-0.4,2-1.1,2.7c-1,1-2.4,1.3-3.8,0.9c-0.4-0.1-0.8,0-1,0.3   c-0.3,0.3-0.3,0.7-0.2,1.1c0.3,0.7,0.5,1.6,0.4,2.4c-0.1,2.2,0.8,4.4,2.6,6l22,20L41.4,44.4z"></path></g></svg>