<svg xmlns="http://www.w3.org/2000/svg" xmlns:xlink="http://www.w3.org/1999/xlink" version="1.1" x="0px" y="0px" viewBox="0 0 147.335 159.572" style="enable-background:new 0 0 147.335 159.572;" xml:space="preserve"><g><path d="M94.27,102.543c0.107-1.782,0.098-3.058-0.109-3.471c-1-2-1-6.916-4.583-5.416s-5.917-1.918-7.25,2.082   c-0.324,0.972-0.509,2.715-0.62,4.854c2.627,0.422,5.389,0.706,8.332,0.82C91.567,101.469,92.997,101.878,94.27,102.543z"></path><path d="M89.666,121.402l-0.347-0.004c-2.834-0.104-5.584-0.335-8.254-0.68c-0.022,0.124-0.045,0.245-0.07,0.354   c-1,4.332,1.084,8.75,4.584,16.25c2.758,5.91,7.333-6.918,6.666-10.584c-0.169-0.932-0.063-3.051,0.171-5.722   c-0.873,0.247-1.792,0.386-2.745,0.386H89.666z"></path><ellipse transform="matrix(0.4131 -0.9107 0.9107 0.4131 20.8693 77.383)" cx="70.474" cy="22.499" rx="22.494" ry="22.496"></ellipse><path d="M36.614,94.019c-0.693-1.097-1.36-2.217-1.988-3.373c-6.881-12.732-7.859-24.862-7.96-29.488l-0.004-0.173   c0-0.31,0.008-0.543,0.025-0.76c0.347-5.22,4.725-9.321,9.965-9.321c0.225,0,0.45,0.008,0.677,0.023   c5.273,0.349,9.375,4.761,9.333,10.047c0,0.072,0.006,0.359,0.033,0.85c0.035,0.59,0.109,1.55,0.262,2.753   c0.175,1.382,0.485,3.27,1.014,5.439c0.137-0.304,0.272-0.605,0.404-0.904c6.289,4.687,15.408,8.528,27.354,8.529   c0.089,0,0.177,0,0.267-0.001c0.052,0,0.105-0.002,0.157-0.002c-0.145,2.207,0.636,4.201,2.709,4.985   c4.961,1.879,5.147,7.594,10.188,5.455c5.042-2.141,1.063-6.244,5.256-13.002c0.076-0.123,0.135-0.239,0.201-0.357   c2.844-1.744,4.403-5.158,3.622-8.592c-0.983-4.308-5.271-7.004-9.576-6.023c-4.809,1.093-8.969,1.534-12.557,1.536   c-10.979-0.074-16.765-3.869-20.534-7.502c-1.848-1.834-3.095-3.687-3.844-5.012c-0.373-0.663-0.621-1.19-0.759-1.506   c-0.069-0.158-0.11-0.263-0.127-0.304l-0.003-0.006c-0.752-2.116-2.309-3.717-4.205-4.587c-0.557-0.411-1.141-0.79-1.784-1.093   c-7.953-3.76-20.999-1.637-28.802,11.736C6.203,70.271,2.027,82.263,0,101.295l35.019-3.265   C35.523,96.685,36.059,95.348,36.614,94.019z"></path><path d="M44.973,64.833c-0.157-1.227-0.235-2.219-0.274-2.897c-0.032-0.552-0.037-0.876-0.038-0.977   c0.033-4.204-3.218-7.754-7.467-8.037c-4.409-0.295-8.221,3.042-8.514,7.45v-0.002c-0.012,0.171-0.019,0.357-0.019,0.555   c0.039,1.313,0.052,14.572,7.722,28.765c1,1.839,2.143,3.692,3.435,5.526c5.227-2.76,9.419-5.441,9.62-5.57l0.214-0.133   c1.356-0.884,2.864-1.521,4.446-1.902c-3.35-4.274-5.525-8.911-6.96-13.229C45.915,70.681,45.285,67.289,44.973,64.833z"></path><path d="M89.361,119.397c0.102,0.003,0.204,0.005,0.304,0.005c4.28,0.001,7.828-3.386,7.989-7.698   c0.165-4.415-3.279-8.129-7.693-8.294c-7.232-0.281-13.141-1.47-18.047-3.222c0.166,1.61,0.073,3.267-0.322,4.91l-2.637,10.962   C74.957,117.935,81.742,119.119,89.361,119.397z"></path><path d="M38.982,125.21l-4.412,18.338c-1.614,6.712,2.518,13.463,9.231,15.077c0.983,0.237,1.967,0.351,2.935,0.351   c5.644,0,10.763-3.851,12.142-9.58l10.768-44.766c1.2-4.991-0.749-10.17-4.941-13.133c-4.192-2.962-9.725-3.067-14.026-0.27   c0,0-0.031,0.019-0.162,0.104c-0.979,0.628-6.215,3.917-12.129,6.871c-0.359,0.18-0.726,0.353-1.089,0.529   c-1.015,0.494-2.035,0.974-3.047,1.422c0-0.001,0-0.001,0.001-0.002c-5.897,4.48-19.553,14.301-32.181,19.356   c3.022,5.386,8.361,6.918,14.191,8.006c3.361,0.627,5.966,1.094,8.013,0.714c0.081,0.001,0.159,0.01,0.24,0.009l0.008,0.002   c2.642-0.028,5.059-0.368,7.358-0.888c2.376-0.537,4.626-1.267,6.863-2.055C38.824,125.267,38.903,125.238,38.982,125.21z"></path><path d="M127.928,147.404c-5.41-3.619-14.845-6-19.174-4.666c-4.33,1.332-16.855,3.334-20.566,1.334   c-3.712-2-9.278-3.166-17.319,0.834c-8.041,4-8.041,14.666-8.041,14.666h70.667C133.495,159.572,132.413,150.406,127.928,147.404z"></path><path d="M147.295,69.098c-0.146-0.612-0.661-1.073-1.285-1.145l-17.55-2.051l8.932-17.517c0.294-0.577,0.185-1.281-0.272-1.74   c-0.457-0.459-1.162-0.572-1.738-0.28l-17.918,9.039l-0.717-15.205c-0.031-0.624-0.443-1.164-1.038-1.357   c-0.593-0.192-1.246,0.004-1.635,0.494l-9.698,12.183c-0.517,0.647-0.41,1.592,0.239,2.109c0.649,0.515,1.592,0.408,2.109-0.241   l7.214-9.063l0.639,13.532c0.022,0.507,0.305,0.97,0.741,1.225c0.439,0.255,0.98,0.272,1.431,0.043l15.89-8.017l-7.832,15.355   c-0.223,0.436-0.218,0.955,0.014,1.388c0.233,0.434,0.661,0.725,1.149,0.783l15.591,1.822l-14.3,9.387   c-0.426,0.28-0.682,0.756-0.675,1.267c0.004,0.513,0.266,0.982,0.698,1.256l12.566,7.931l-18.831,1.804   c-0.459,0.044-0.875,0.299-1.123,0.686c-0.247,0.389-0.303,0.873-0.148,1.307l3.722,10.48l-9.807-4.809   c-0.745-0.364-1.645-0.058-2.008,0.688c-0.366,0.743-0.058,1.642,0.686,2.008l13.114,6.428c0.211,0.104,0.438,0.154,0.662,0.154   c0.36,0,0.716-0.13,0.996-0.381c0.457-0.406,0.62-1.046,0.416-1.621l-4.311-12.138l21.29-2.036c0.64-0.063,1.167-0.521,1.316-1.147   c0.15-0.626-0.116-1.272-0.659-1.614l-14.311-9.035l15.804-10.371C147.184,70.351,147.439,69.709,147.295,69.098z"></path></g></svg>