<svg xmlns="http://www.w3.org/2000/svg" xmlns:xlink="http://www.w3.org/1999/xlink" version="1.1" x="0px" y="0px" viewBox="0 0 100 100" enable-background="new 0 0 100 100" xml:space="preserve"><path d="M92.5,40H85V22.5c0-0.663-0.264-1.299-0.732-1.768l-15-15C68.799,5.263,68.163,5,67.5,5h-50C16.119,5,15,6.119,15,7.5V40  H7.5C6.119,40,5,41.119,5,42.5v35C5,78.881,6.119,80,7.5,80H15v12.5c0,1.381,1.119,2.5,2.5,2.5h65c1.381,0,2.5-1.119,2.5-2.5V80h7.5  c1.381,0,2.5-1.119,2.5-2.5v-35C95,41.119,93.881,40,92.5,40z M70,13.535L76.464,20H70V13.535z M20,10h45v15h15v15H20V10z M80,90H20  V80h60V90z M90,75H10V45h80V75z"></path><path d="M39.375,65h2.5c4.136,0,7.5-3.364,7.5-7.5s-3.364-7.5-7.5-7.5h-5c-1.381,0-2.5,1.119-2.5,2.5V70h5V65z M39.375,55h2.5  c1.379,0,2.5,1.122,2.5,2.5s-1.121,2.5-2.5,2.5h-2.5V55z"></path><path d="M65.625,62.5V50h-5v7.5c-2.757,0-5-2.243-5-5V50h-5v2.5c0,5.514,4.486,10,10,10c0,1.378-1.121,2.5-2.5,2.5h-7.5v5h7.5  C62.261,70,65.625,66.636,65.625,62.5z"></path></svg>