<svg xmlns="http://www.w3.org/2000/svg" xmlns:xlink="http://www.w3.org/1999/xlink" version="1.1" x="0px" y="0px" viewBox="0 0 100 100" enable-background="new 0 0 100 100" xml:space="preserve"><path d="M93.912,50.278c-1.08-0.487-2.352-0.005-2.839,1.076c-0.234,0.522-0.239,1.089-0.062,1.59l-7.195,3.846  c-1.32-2.753-4.126-4.659-7.382-4.659c-1.017,0-1.985,0.194-2.884,0.532l-9.549-20.418c1.572-1.058,2.606-2.853,2.606-4.89  c0-0.6-0.091-1.179-0.258-1.725l15.777-4.875c0.447,0.827,1.312,1.395,2.318,1.395c1.459,0,2.644-1.185,2.644-2.646  s-1.185-2.645-2.644-2.645c-1.462,0-2.646,1.184-2.646,2.645c0,0.104,0.019,0.201,0.03,0.302l-15.855,4.9  c-0.97-1.919-2.954-3.239-5.254-3.239c-0.308,0-0.607,0.031-0.902,0.076l-1.277-7.252c1.706-0.415,2.978-1.942,2.978-3.776  c0-2.152-1.746-3.897-3.898-3.897s-3.897,1.745-3.897,3.897c0,2.129,1.709,3.853,3.829,3.891l1.298,7.371  c-2.333,0.782-4.017,2.981-4.017,5.578c0,1.161,0.341,2.241,0.921,3.153l-15.124,11.74c-1.857-3.219-5.327-5.39-9.31-5.39  c-2.092,0-4.038,0.607-5.69,1.641L18.35,26.013c0.803-0.688,1.322-1.698,1.322-2.838c0-2.073-1.682-3.755-3.755-3.755  c-2.073,0-3.755,1.682-3.755,3.755c0,2.074,1.682,3.754,3.755,3.754c0.575,0,1.113-0.14,1.6-0.37l7.292,12.507  c-2.575,1.964-4.243,5.056-4.243,8.544c0,0.865,0.113,1.701,0.306,2.507L9.877,50.603c-0.257-1.143-1.274-1.998-2.494-1.998  c-1.415,0-2.561,1.146-2.561,2.561c0,1.413,1.146,2.56,2.561,2.56c1.266,0,2.31-0.921,2.517-2.128L21.156,51.1  c1.169,3.404,3.993,6.028,7.517,6.921l-1.9,12.826c-0.175-0.022-0.348-0.054-0.53-0.054c-2.31,0-4.182,1.872-4.182,4.182  s1.872,4.182,4.182,4.182c0.265,0,0.522-0.031,0.773-0.078l4.519,10.623c-0.188,0.184-0.348,0.4-0.462,0.653  c-0.485,1.08-0.004,2.351,1.077,2.837c1.08,0.487,2.353,0.005,2.837-1.076c0.489-1.08,0.005-2.352-1.075-2.838  c-0.497-0.224-1.031-0.234-1.513-0.084l-4.433-10.418c1.337-0.607,2.283-1.896,2.421-3.426l11.116-0.629  c0.59,1.3,1.893,2.208,3.414,2.208c2.072,0,3.755-1.681,3.755-3.755c0-2.072-1.683-3.754-3.755-3.754  c-2.073,0-3.755,1.682-3.755,3.754c0,0.194,0.029,0.381,0.057,0.567l-10.857,0.615c-0.225-1.505-1.24-2.742-2.62-3.274l1.906-12.862  c0.546,0.085,1.101,0.143,1.67,0.143c5.938,0,10.751-4.813,10.751-10.752c0-1.594-0.356-3.103-0.979-4.463l15.265-11.848  c1.078,1.191,2.631,1.945,4.363,1.945c0.859,0,1.673-0.188,2.408-0.519l9.512,20.341c-2.613,1.369-4.398,4.104-4.398,7.257  c0,2.372,1.015,4.503,2.626,5.999l-4.665,5.323c-0.521-0.298-1.111-0.487-1.754-0.498c-2.026-0.035-3.697,1.581-3.73,3.605  c-0.033,2.027,1.581,3.697,3.606,3.731c2.026,0.034,3.698-1.579,3.732-3.606c0.018-1.025-0.39-1.957-1.057-2.635l4.635-5.289  c1.35,0.979,3.004,1.562,4.799,1.562c0.938,0,1.835-0.165,2.674-0.456l5.733,11.404c-0.869,0.568-1.445,1.546-1.445,2.661  c0,1.759,1.425,3.184,3.184,3.184s3.182-1.425,3.182-3.184c0-1.758-1.423-3.183-3.182-3.183c-0.288,0-0.562,0.051-0.826,0.122  l-5.726-11.388c2.72-1.333,4.599-4.121,4.599-7.354c0-0.913-0.156-1.788-0.432-2.608l7.36-3.935  c0.172,0.164,0.367,0.309,0.596,0.411c1.08,0.487,2.353,0.005,2.837-1.075C95.477,52.036,94.992,50.765,93.912,50.278z"/></svg>