<svg xmlns="http://www.w3.org/2000/svg" xmlns:xlink="http://www.w3.org/1999/xlink" version="1.2" baseProfile="tiny" x="0px" y="0px" viewBox="0 0 100 100" xml:space="preserve"><g><path d="M87.813,44.023c-0.101-0.681-0.606-1.228-1.286-1.396l-3.94-0.95c-2.167-0.519-3.732-1.708-4.408-3.351   c-0.686-1.64-0.419-3.589,0.748-5.488l2.113-3.455c0.357-0.59,0.324-1.333-0.08-1.889c-2.359-3.248-5.206-6.093-8.455-8.455   c-0.294-0.213-0.641-0.328-1.007-0.328c-0.313,0-0.616,0.085-0.883,0.247l-3.454,2.114c-1.189,0.727-2.435,1.111-3.603,1.111   c-2.521,0-4.531-1.828-5.243-4.769l-0.941-3.953c-0.17-0.671-0.719-1.171-1.396-1.274c-1.961-0.307-3.97-0.464-5.976-0.464   c-2.004,0-4.015,0.157-5.974,0.464c-0.674,0.102-1.232,0.616-1.389,1.279l-0.953,3.946c-0.713,2.942-2.719,4.77-5.241,4.77   c-1.169,0-2.414-0.384-3.603-1.11l-3.457-2.116c-0.265-0.16-0.569-0.246-0.879-0.246c-0.368,0-0.715,0.114-1.006,0.328   c-3.247,2.358-6.089,5.202-8.455,8.453c-0.407,0.557-0.442,1.298-0.084,1.892l2.12,3.454c1.16,1.893,1.427,3.84,0.746,5.49   c-0.68,1.643-2.243,2.831-4.408,3.349l-3.947,0.951c-0.673,0.167-1.177,0.715-1.279,1.395c-0.31,2.004-0.466,4.015-0.466,5.972   c0,1.966,0.156,3.979,0.466,5.977c0.101,0.676,0.618,1.234,1.281,1.391l3.945,0.953c2.163,0.521,3.728,1.713,4.408,3.352   c0.68,1.649,0.413,3.601-0.748,5.496l-2.118,3.452c-0.357,0.592-0.322,1.333,0.082,1.888c2.368,3.253,5.212,6.1,8.454,8.453   c0.292,0.213,0.639,0.328,1,0.328c0.316,0,0.625-0.09,0.891-0.255l3.455-2.106c1.199-0.731,2.446-1.119,3.603-1.119   c2.52,0,4.528,1.829,5.241,4.778l0.953,3.943c0.156,0.666,0.698,1.171,1.389,1.286c1.99,0.308,4,0.464,5.979,0.464   c1.972,0,3.979-0.156,5.977-0.464c0.682-0.115,1.228-0.618,1.39-1.286l0.943-3.943c0.715-2.949,2.723-4.778,5.243-4.778   c1.154,0,2.402,0.388,3.603,1.119l3.45,2.104c0.269,0.167,0.579,0.257,0.896,0.257c0.361,0,0.708-0.115,0.996-0.328   c3.249-2.358,6.093-5.202,8.455-8.453c0.406-0.557,0.439-1.299,0.082-1.89l-2.113-3.45c-1.169-1.902-1.434-3.854-0.748-5.496   c0.674-1.639,2.239-2.828,4.405-3.352l3.943-0.951c0.666-0.158,1.186-0.717,1.282-1.391c0.31-1.988,0.466-3.999,0.466-5.979   C88.277,48.04,88.121,46.032,87.813,44.023z M75.028,60.364c-1.103,2.67-0.754,5.713,0.988,8.567l1.516,2.469   c-1.774,2.276-3.834,4.334-6.129,6.12l-2.466-1.509c-1.733-1.056-3.593-1.612-5.379-1.612c-4.112,0-7.468,2.899-8.55,7.387   l-0.678,2.814c-1.428,0.174-2.88,0.265-4.33,0.265c-1.448,0-2.902-0.091-4.329-0.265l-0.678-2.814   c-1.083-4.487-4.44-7.387-8.55-7.387c-1.787,0-3.646,0.557-5.379,1.614l-2.467,1.507c-2.306-1.799-4.362-3.856-6.122-6.12   l1.501-2.469c1.746-2.851,2.099-5.894,0.994-8.57c-1.107-2.672-3.508-4.573-6.759-5.357l-2.815-0.676   c-0.175-1.401-0.263-2.858-0.263-4.335c0-1.478,0.088-2.932,0.263-4.327l2.815-0.678c3.253-0.783,5.652-2.686,6.759-5.358   c1.107-2.679,0.754-5.721-0.994-8.565l-1.503-2.469c1.774-2.282,3.832-4.342,6.124-6.128l2.467,1.506   c1.725,1.061,3.583,1.623,5.376,1.623c4.11,0,7.466-2.901,8.55-7.387l0.68-2.815c1.427-0.176,2.881-0.266,4.329-0.266   s2.902,0.089,4.33,0.266l0.678,2.815c1.082,4.486,4.444,7.387,8.558,7.387c1.789,0,3.646-0.562,5.369-1.622l2.466-1.507   c2.284,1.779,4.346,3.838,6.131,6.128l-1.518,2.468c-1.742,2.848-2.091,5.891-0.986,8.566c1.104,2.672,3.504,4.575,6.764,5.358   l2.813,0.678c0.181,1.471,0.271,2.926,0.271,4.327c0,1.4-0.09,2.858-0.272,4.335l-2.812,0.676   C78.534,55.788,76.136,57.691,75.028,60.364z"/><path d="M50.006,36.274c-7.568,0-13.726,6.155-13.726,13.719c0,7.569,6.157,13.729,13.726,13.729   c7.565,0,13.721-6.159,13.721-13.729C63.727,42.429,57.571,36.274,50.006,36.274z M50.006,59.842c-5.43,0-9.848-4.417-9.848-9.849   c0-5.432,4.418-9.85,9.848-9.85c5.43,0,9.848,4.417,9.848,9.85C59.854,55.425,55.436,59.842,50.006,59.842z"/></g></svg>