<svg xmlns="http://www.w3.org/2000/svg" xmlns:xlink="http://www.w3.org/1999/xlink" version="1.1" x="0px" y="0px" viewBox="0 0 194.998 300" style="enable-background:new 0 0 194.998 300;" xml:space="preserve"><g><path d="M184.998,300c5.523,0,10-4.477,10-10V10c0-5.523-4.477-10-10-10H10C4.477,0,0,4.477,0,10v280c0,5.523,4.477,10,10,10   H184.998z M5.002,290V10.001c0-2.759,2.24-5,4.996-5h175c2.76,0,5,2.241,5,5V290c0,2.759-2.24,5-5,5h-175   C7.242,295,5.002,292.759,5.002,290z"></path><path d="M139.607,102.743c-8.248-8.873-15.617-12.918-18.15-14.151c-0.258-0.042-0.518-0.084-0.775-0.126   c-1.643-0.267-3.281-0.516-4.885-0.749c-0.703-0.101-1.395-0.199-2.08-0.294H78.182c-0.334,0-0.658,0.028-0.981,0.069   c-2.406-0.204-9.547-0.983-16.057-2.815c-2.512,0.251-4.096,0.581-5.082,0.881c-0.895,0.273-1.686,0.406-2.416,0.406   c-1.873,0-2.94-0.885-3.504-1.626c-2.15-2.822-0.855-8.052,1.621-17.055c1.357-4.933,2.895-10.525,3.334-15.195   c0.051-0.541,0.086-1.099,0.113-1.668c-6.012,4.213-10.574,8.127-14.01,11.975c-2.266,2.553-4.049,5.096-5.328,7.782   c-1.271,2.674-2.025,5.542-2.024,8.443c-0.019,3.475,1.145,6.812,2.879,9.373c3.088,4.52,7.316,7.066,11.564,9.044   c6.416,2.897,13.402,4.386,18.965,5.313c1.303,0.213,2.521,0.389,3.631,0.535l3.057,54.29l-22.182,9.706   c-5.875,2.569-8.857,9.192-6.885,15.295l13.998,43.334c1.709,5.292,6.615,8.66,11.893,8.66c1.273,0,2.568-0.196,3.846-0.609   c6.57-2.121,10.174-9.169,8.053-15.738l-10.523-32.573l21.639-9.466c1.508-0.66,2.813-1.586,3.898-2.692   c7.131,15.225,17.787,43.842,20.625,83.308c0.473,6.579,5.959,11.601,12.455,11.601c0.301,0,0.605-0.011,0.91-0.033   c6.887-0.497,12.066-6.481,11.568-13.368c-3.074-42.438-14.365-73.642-22.529-91.279c0.002-0.107,0.012-0.213,0.012-0.321   l3.012-53.441c1.541,1.377,3.188,2.986,4.893,4.882c7.66,8.542,16.494,22.59,21.088,45.462c0.76,3.803,4.1,6.432,7.836,6.432   c0.52,0.001,1.047-0.051,1.576-0.156c4.332-0.868,7.145-5.082,6.275-9.414C160.145,130.372,149.344,113.188,139.607,102.743z"></path><path d="M145.912,60.609c1.322-14.111,11.814-34.479,1.607-31.371c-10.205,3.11-43.467-0.01-43.467-0.01s-33.262-3.12-42.711-8.074   c-8.748-4.586-3.814,13.897-4.084,27.862c-0.021,1.12-0.072,2.213-0.17,3.26c-0.666,7.088-3.643,15.754-5.148,22.232   c-0.512,2.197-0.846,4.134-0.869,5.68c-0.047,2.968,1.068,4.475,4.408,3.457c0.43-0.13,0.912-0.247,1.418-0.355   c11.537-2.492,42.049,0.368,42.049,0.367c0,0,33.262,3.122,42.711,8.075C151.105,96.684,144.588,74.719,145.912,60.609z    M121.354,63.781c-2.596,11.151-12.395,18.941-23.834,18.941c-1.865,0-3.742-0.216-5.576-0.644   c-11.961-2.783-19.832-13.945-18.857-25.837c0.098-1.186,0.279-2.378,0.557-3.571c0.027-0.119,0.068-0.231,0.098-0.349   c2.719-10.968,12.424-18.599,23.742-18.599c1.867,0,3.738,0.217,5.574,0.645C116.211,37.431,124.42,50.628,121.354,63.781z"></path><ellipse transform="matrix(0.2268 -0.9739 0.9739 0.2268 18.6815 139.9785)" cx="97.5" cy="58.224" rx="22.495" ry="22.495"></ellipse></g></svg>