<svg xmlns="http://www.w3.org/2000/svg" xmlns:xlink="http://www.w3.org/1999/xlink" version="1.1" x="0px" y="0px" viewBox="0 0 100 100" enable-background="new 0 0 100 100" xml:space="preserve"><metadata><?xpacket begin="&#65279;" id="W5M0MpCehiHzreSzNTczkc9d"?><x:xmpmeta xmlns:x="adobe:ns:meta/" x:xmptk="Adobe XMP Core 5.3-c011 66.145661, 2012/02/06-14:56:27        "/><?xpacket end="w"?></metadata><g><path fill="#000000" d="M50,64.009c-0.094,0-0.188-0.013-0.278-0.04L5.7,50.938C5.285,50.814,5,50.433,5,50   c0-0.434,0.285-0.815,0.7-0.938l26.827-7.941c0.182-0.054,0.374-0.054,0.556,0L50,46.128l16.917-5.008   c0.182-0.054,0.374-0.054,0.556,0L94.3,49.062C94.715,49.185,95,49.566,95,50c0,0.433-0.285,0.814-0.7,0.938L50.278,63.969   C50.188,63.996,50.094,64.009,50,64.009z M9.425,50L50,62.011L90.575,50l-23.38-6.921l-16.917,5.008   c-0.182,0.053-0.375,0.053-0.557,0l-16.917-5.008L9.425,50z M50,85.679c-0.094,0-0.188-0.014-0.278-0.041L5.7,72.607   C5.285,72.484,5,72.103,5,71.669c0-0.433,0.285-0.815,0.7-0.938l26.827-7.941c0.182-0.053,0.374-0.053,0.556,0L50,67.797   l16.917-5.008c0.182-0.053,0.374-0.053,0.556,0L94.3,70.731c0.415,0.123,0.7,0.505,0.7,0.938c0,0.434-0.285,0.815-0.7,0.938   L50.278,85.639C50.188,85.666,50.094,85.679,50,85.679z M9.425,71.669L50,83.681l40.575-12.012l-23.38-6.921l-16.917,5.008   c-0.182,0.054-0.375,0.054-0.557,0l-16.917-5.008L9.425,71.669z M50,42.34c-0.094,0-0.188-0.013-0.278-0.04L5.7,29.269   C5.285,29.146,5,28.764,5,28.331c0-0.434,0.285-0.815,0.7-0.938l44.021-13.031c0.182-0.054,0.375-0.054,0.557,0L94.3,27.392   c0.415,0.124,0.7,0.505,0.7,0.938c0,0.433-0.285,0.815-0.7,0.938L50.278,42.3C50.188,42.327,50.094,42.34,50,42.34z M9.425,28.331   L50,40.341l40.575-12.011L50,16.319L9.425,28.331z"/></g></svg>