<svg xmlns="http://www.w3.org/2000/svg" xmlns:xlink="http://www.w3.org/1999/xlink" version="1.1" x="0px" y="0px" viewBox="0 0 60 75" enable-background="new 0 0 60 60" xml:space="preserve"><g><g><path d="M56.0334587,4.7047148l0.0038414-0.0076842l-0.4826698-0.483151C52.8377495,1.496518,49.2112389,0,45.3426704,0    s-7.4955559,1.496518-10.2124367,4.2138796L22.5606346,16.7854004c-2.7168827,2.7164001-4.2133999,6.3433914-4.2133999,10.2114773    c0,3.8690472,1.4965172,7.4950771,4.2133999,10.2114773l0.2463779,0.2468605    c0.4375248,0.4351234,1.0234528,0.6752586,1.6492424,0.6752586c0.6382771,0,1.2640686-0.259346,1.7160015-0.7108002    l1.8965816-1.8970604c0.4284-0.4284019,0.6642132-0.9980011,0.6632519-1.603138    c-0.0009613-0.631073-0.2526207-1.2285271-0.7218437-1.6943893l-0.2324505-0.2324505    c-1.3341866-1.3341866-2.0685177-3.1073399-2.0685177-4.9938354c0-1.8864975,0.7343311-3.6596508,2.0685177-4.9938374    L40.3478737,9.4344034c1.3337097-1.3341875,3.1073418-2.0680385,4.9938393-2.0680385    c1.8864937,0,3.6601295,0.733851,4.9938354,2.0680385l0.2324486,0.2324505    c1.3313065,1.3313055,2.0646782,3.1054182,2.0646782,4.9947968s-0.7333717,3.6625299-2.0646782,4.9928751l-5.0596313,5.0601139    c-0.5124474,0.5119667-0.6771812,1.2669506-0.4298401,1.9691029c0.5508652,1.5656776,0.8942604,3.2072372,1.0205688,4.8776112    c0.0513916,0.6829433,0.6017799,1.1968327,1.2803993,1.1968327c0.335228,0,0.6531639-0.1335182,0.8952217-0.3755722    l7.5104446-7.5104465c2.7168808-2.7164001,4.213398-6.3433914,4.213398-10.2114773    C59.998558,10.9117107,58.5932922,7.3903785,56.0334587,4.7047148z M55.0897293,24.1767387l-7.5104446,7.5104465    c-0.0581131,0.0585918-0.125351,0.0874081-0.199791,0.0874081c-0.1349564,0-0.2857628-0.0998955-0.2996902-0.2872009    c-0.1325531-1.7568226-0.4937134-3.4829102-1.0733986-5.1302319c-0.1205482-0.3419514-0.0446663-0.7050362,0.1973877-0.9470901    l5.0596352-5.0601139c1.51717-1.5157299,2.3528366-3.5367012,2.3528366-5.6883059    c0-2.152566-0.8356667-4.1725769-2.3528366-5.6902266l-0.2324486-0.2324505    c-1.5195732-1.5195708-3.5400658-2.3561993-5.6892662-2.3561993c-2.1492043,0-4.1696968,0.8366284-5.6892662,2.3561993    L27.0823669,21.3095341c-1.5195713,1.5195694-2.3566799,3.5395813-2.3566799,5.6892662s0.8371086,4.1696949,2.3566799,5.6892643    l0.2473373,0.2468605c0.2694321,0.2679901,0.418314,0.6185837,0.4187946,0.9855118    c0.0004807,0.3419495-0.1325531,0.6646919-0.3750896,0.9067459l-1.8965816,1.8970642    c-0.5268555,0.5263748-1.4475307,0.5580711-1.9883137,0.0211296l-0.2324505-0.2324486    c-2.5310173-2.5310173-3.9252377-5.9101906-3.9252377-9.5160503s1.3942204-6.9850311,3.9252377-9.5160484L35.8256607,4.9093094    c2.5310173-2.5310175,5.9111519-3.9257185,9.5170097-3.9257185c3.5972176,0,6.9696655,1.3879771,9.4987602,3.9074681    l-0.0019188,0.0038424l0.2502174,0.2507005c2.5310173,2.5300565,3.9252396,5.9092288,3.9252396,9.515089    S57.6207466,21.6457214,55.0897293,24.1767387z"/><path d="M37.1949081,22.5428638c-0.8827324-0.8788929-2.4685822-0.8587208-3.3638039,0.0355396l-1.8980217,1.898983    c-0.4284,0.4284-0.6642113,0.9979992-0.6632519,1.603138c0.0009613,0.6310749,0.2526226,1.228529,0.7218437,1.6943893    l0.2324505,0.2324505c2.7533836,2.7538624,2.7533836,7.2338123,0,9.9876728L19.6521244,50.5675163    c-1.3337059,1.3341904-3.1073399,2.0680389-4.9938354,2.0680389s-3.6601295-0.7338486-4.9938364-2.0680389l-0.2324505-0.2324486    c-2.7533822-2.7538605-2.7533822-7.2347717,0-9.9886322l4.934763-4.9333229    c0.5772839-0.5792046,0.7828388-1.4360046,0.5239735-2.1833038c-0.5364599-1.5503082-0.8697672-3.169775-0.9917555-4.815176    c-0.0499477-0.6762199-0.5955334-1.186264-1.2688704-1.186264c-0.3318653,0-0.6464415,0.1315937-0.8865767,0.371727    l-7.5286956,7.5296574c-2.7168815,2.7164001-4.2133994,6.3433914-4.2133994,10.2124367    c0,3.8680878,1.4965181,7.495079,4.2129192,10.2114792l0.23245,0.2324524C7.1636915,58.5034828,10.7906828,60,14.6592493,60    s7.4950762-1.4965172,10.2119589-4.2138786L37.441288,43.2165222c5.6306725-5.6316338,5.6306725-14.7942066,0.0014381-20.4239178    L37.1949081,22.5428638z M36.7458572,42.5210915L24.1757793,55.0906906    c-2.5310192,2.5310173-5.9106712,3.9257202-9.51653,3.9257202s-6.9859924-1.3947029-9.5165291-3.9257202l-0.23245-0.2324486    c-2.5310173-2.5310173-3.9252381-5.9111519-3.9252381-9.5160522c0-3.6058578,1.3942208-6.9859886,3.9252381-9.5170059    l7.5286961-7.5296593c0.0557108-0.0557098,0.1200676-0.0835667,0.1911469-0.0835667    c0.129673,0,0.2747145,0.0970154,0.2881613,0.2756748c0.1277523,1.729929,0.4788284,3.4339237,1.0431442,5.0639572    c0.1363964,0.3947792,0.0225725,0.8519974-0.2905626,1.1660919l-4.9342833,4.9333229    c-3.1371164,3.1371155-3.1371164,8.2423744,0,11.3794937l0.2324505,0.2324486    c1.5195713,1.5195694,3.540062,2.3562012,5.6892662,2.3562012s4.1696949-0.8366318,5.6892662-2.3562012l12.5720005-12.5724792    c3.1371155-3.1371193,3.1371155-8.2414169,0-11.3785324l-0.2473373-0.2468586    c-0.2694321-0.2679901-0.4183159-0.6185875-0.4187965-0.9855118c-0.0004807-0.3419514,0.1325531-0.6646919,0.3750916-0.9067478    l1.8980217-1.898983c0.5258942-0.5273361,1.44561-0.560955,1.9868736-0.0192108l0.2324486,0.2324486    C41.9927979,28.7344913,41.9927979,37.273674,36.7458572,42.5210915z"/></g></g><text x="0" y="75" fill="#000000" font-size="5px" font-weight="bold" font-family="'Helvetica Neue', Helvetica, Arial-Unicode, Arial, Sans-serif">Created by Josh Sorosky</text><text x="0" y="80" fill="#000000" font-size="5px" font-weight="bold" font-family="'Helvetica Neue', Helvetica, Arial-Unicode, Arial, Sans-serif">from the Noun Project</text></svg>