<svg xmlns="http://www.w3.org/2000/svg" xmlns:xlink="http://www.w3.org/1999/xlink" version="1.1" x="0px" y="0px" viewBox="0 0 100 125" enable-background="new 0 0 100 100" xml:space="preserve"><path fill="#000000" d="M21.965,87.318L50.045,95l22.691-7.653L90.288,70.35l4.89-28.49L78.161,13.557l-28.484-7.96l-22.149,7.938  L9.851,30.511L4.822,58.182L21.965,87.318z M13.65,46.874l2.973,18.698L8.191,57.59L13.65,46.874z M78.745,27.488L62.977,16.293  h13.059L78.745,27.488z M21.187,73.191l15.767,11.384h-12.87L21.187,73.191z M38.373,56.101l0.774-22.892l20.792,9.18L38.377,56.098  L38.373,56.101z M35.715,61.218l3.729,21.519l-0.003-0.002L21.444,69.738L35.715,61.218z M38.724,61.286L38.724,61.286l20.289,8.724  L42.542,83.322L38.724,61.286z M39.953,58.598l21.503-13.675l-0.993,22.496L39.953,58.598z M64.409,45.026l17.885,13.517  L63.43,67.267L64.409,45.026z M65.666,42.276l14.301-8.862L83.169,55.5L65.666,42.276z M64.145,39.748L64.145,39.748l-3.733-21.655  l18.027,12.799L64.145,39.748z M57.312,17.5l3.825,22.189l-20.577-9.086l0.004-0.002l16.746-13.099L57.312,17.5z M35.422,55.978  L17.242,42.43l18.946-9.071L35.422,55.978z M34.147,58.716l-14.273,8.522l-3.452-21.732L34.147,58.716z M61.457,71.829l7.731,12.746  h-23.49L61.457,71.829z M71.577,82.81l-7.612-12.544l17.989-8.313L71.577,82.81z M85.94,54.021l-2.792-19.247l8.647,7.724  L85.94,54.021z M38.169,28.766l-0.001,0.001L30.89,16.293h23.184L38.169,28.766z M28.403,17.897l0.002-0.004l7.255,12.437  l-17.967,8.604L28.403,17.897z M12.936,66.154l4.508,4.265l1.514,5.966L12.936,66.154z M33.925,87.527h7.042l3.216,2.806  L33.925,87.527z M50.33,91.791l-4.876-4.264H62.95L50.33,91.791z M76.453,79.636l8.466-17.023l2.292,6.605L76.453,79.636z   M88.426,63.752l-1.444-4.125l-0.236-0.674l0.271-0.535l3.507-6.89L88.426,63.752z M87.35,34.567l-4.924-4.39l-1.535-6.349  L87.35,34.567z M66.43,13.341h-7.515l-3.445-3.063L66.43,13.341z M49.399,8.826l5.07,4.515H36.808L49.399,8.826z M23.034,21.94  l-8.266,16.225l-1.882-6.474L23.034,21.94z M11.553,37.671l1.264,4.334l-3.195,6.258L11.553,37.671z"/><text x="0" y="115" fill="#000000" font-size="5px" font-weight="bold" font-family="'Helvetica Neue', Helvetica, Arial-Unicode, Arial, Sans-serif">Created by Felix Koutchinski</text><text x="0" y="120" fill="#000000" font-size="5px" font-weight="bold" font-family="'Helvetica Neue', Helvetica, Arial-Unicode, Arial, Sans-serif">from the Noun Project</text></svg>