<svg xmlns="http://www.w3.org/2000/svg" xmlns:xlink="http://www.w3.org/1999/xlink" version="1.1" x="0px" y="0px" viewBox="0 0 90 112.5" enable-background="new 0 0 90 90" xml:space="preserve"><g><g><path d="M56.3,82.7H32.2c-0.2,0-0.4-0.1-0.6-0.2L12.1,68.3c-0.4-0.3-0.5-0.7-0.4-1.1c0.1-0.4,0.5-0.7,1-0.7h32.3l8.3-25.6    c0.1-0.3,0.3-0.5,0.6-0.6c0.3-0.1,0.6,0,0.9,0.1l12.3,9c0.4,0.3,0.5,0.7,0.4,1.1L57.2,82C57.1,82.4,56.7,82.7,56.3,82.7z     M32.5,80.7h23.1l9.8-30.2l-10.6-7.7l-8.1,25c-0.1,0.4-0.5,0.7-1,0.7H15.7L32.5,80.7z"/></g><g><path d="M56.3,82.7c-0.2,0-0.4-0.1-0.6-0.2c-0.4-0.3-0.5-0.7-0.4-1.1l10-30.8L43.6,34.7c-0.3-0.2-0.4-0.5-0.4-0.8    c0-0.3,0.2-0.6,0.4-0.8l12.2-8.9c0.4-0.3,0.8-0.3,1.2,0l26.8,19.5c0.4,0.3,0.5,0.7,0.4,1.1l-7.5,22.9c-0.1,0.2-0.2,0.4-0.4,0.5    L56.9,82.5C56.7,82.6,56.5,82.7,56.3,82.7z M45.9,33.9l21.2,15.4c0.4,0.3,0.5,0.7,0.4,1.1l-9.3,28.6L75,66.9l7.1-21.9L56.4,26.3    L45.9,33.9z"/></g><g><path d="M83.3,45.6c-0.2,0-0.4-0.1-0.6-0.2L56.4,26.3L34.8,42c-0.3,0.2-0.6,0.2-0.9,0.1c-0.3-0.1-0.5-0.3-0.6-0.6l-4.7-14.4    c-0.1-0.4,0-0.9,0.4-1.1L55.7,6.6c0.4-0.3,0.8-0.3,1.2,0l19.5,14.2c0.2,0.1,0.3,0.3,0.4,0.5l7.5,22.9c0.1,0.4,0,0.9-0.4,1.1    C83.7,45.5,83.5,45.6,83.3,45.6z M56.4,24.1c0.2,0,0.4,0.1,0.6,0.2l24.3,17.7L75,22.2L56.3,8.7L30.8,27.2l4,12.4l21.1-15.3    C56,24.1,56.2,24.1,56.4,24.1z"/></g><g><path d="M38.1,53.9H22.8c-0.4,0-0.8-0.3-1-0.7L11.7,21.9c-0.1-0.4,0-0.9,0.4-1.1L31.6,6.6c0.2-0.1,0.4-0.2,0.6-0.2h24.1    c0.4,0,0.8,0.3,1,0.7s0,0.9-0.4,1.1l-26.1,19L39,52.6c0.1,0.3,0,0.6-0.1,0.9S38.4,53.9,38.1,53.9z M23.5,51.9h13.1l-8-24.8    c-0.1-0.4,0-0.9,0.4-1.1L53.2,8.4H32.5L13.8,22L23.5,51.9z"/></g><g><path d="M45.6,68.5h-33c-0.4,0-0.8-0.3-1-0.7L4.2,44.9c-0.1-0.2-0.1-0.4,0-0.6l7.5-22.9c0.1-0.4,0.5-0.7,1-0.7s0.8,0.3,1,0.7    l9.9,30.6h26.8c0.3,0,0.6,0.2,0.8,0.4c0.2,0.3,0.2,0.6,0.1,0.9l-4.7,14.6C46.5,68.2,46.1,68.5,45.6,68.5z M13.4,66.5h31.5L49,53.9    H22.8c-0.4,0-0.8-0.3-1-0.7l-9.2-28.4L6.2,44.6L13.4,66.5z"/></g></g><text x="0" y="105" fill="#000000" font-size="5px" font-weight="bold" font-family="'Helvetica Neue', Helvetica, Arial-Unicode, Arial, Sans-serif">Created by frederick allen</text><text x="0" y="110" fill="#000000" font-size="5px" font-weight="bold" font-family="'Helvetica Neue', Helvetica, Arial-Unicode, Arial, Sans-serif">from the Noun Project</text></svg>