<svg xmlns="http://www.w3.org/2000/svg" xmlns:xlink="http://www.w3.org/1999/xlink" version="1.1" x="0px" y="0px" viewBox="0 0 64 64" enable-background="new 0 0 64 64" xml:space="preserve"><g><path d="M56.979,29.849c-2.453,0-4.609,1.255-5.865,3.153l-12.346-5.303c0.248-0.855,0.389-1.756,0.389-2.69   c0-1.738-0.467-3.366-1.273-4.776l12.463-9.271c0.723,0.539,1.611,0.87,2.582,0.87c2.387,0,4.32-1.926,4.32-4.302   c0-2.377-1.934-4.304-4.32-4.304s-4.32,1.927-4.32,4.304c0,0.527,0.109,1.026,0.283,1.493l-12.463,9.271   c-1.768-1.826-4.244-2.968-6.992-2.968c-0.072,0-0.143,0.01-0.213,0.012l-1.105-7.417c1.412-0.669,2.398-2.092,2.398-3.754   C30.516,1.866,28.641,0,26.331,0c-2.313,0-4.186,1.866-4.186,4.168c0,2.091,1.551,3.808,3.568,4.105l1.105,7.42   c-4.096,1.139-7.105,4.873-7.105,9.315c0,0.882,0.129,1.732,0.352,2.546l-7.382,3.037c-1.226-1.9-3.36-3.163-5.796-3.163   C3.083,27.429,0,30.499,0,34.285c0,3.787,3.083,6.857,6.887,6.857c3.803,0,6.885-3.07,6.885-6.857c0-0.501-0.057-0.987-0.159-1.457   l7.378-3.036c1.674,2.923,4.824,4.896,8.445,4.896c0.234,0,0.467-0.019,0.697-0.034l2.215,11.024   c-3.732,1.258-6.424,4.768-6.424,8.909c0,5.198,4.232,9.412,9.451,9.412c5.221,0,9.451-4.214,9.451-9.412s-4.23-9.412-9.451-9.412   c-0.217,0-0.43,0.019-0.645,0.032l-2.212-11.024c2.236-0.744,4.103-2.274,5.283-4.265l12.352,5.307   c-0.123,0.519-0.193,1.058-0.193,1.614c0,3.861,3.143,6.991,7.02,6.991c3.879,0,7.021-3.13,7.021-6.991   S60.857,29.849,56.979,29.849z"/></g></svg>