<svg xmlns="http://www.w3.org/2000/svg" viewBox="0 0 32 32" enable-background="new 0 0 32 32" x="0px" y="0px"><g><path fill="#14a098" d="M16 32c-1.231 0-3.031-.654-4.609-3.773-.25-.492-.052-1.094.44-1.344.493-.249 1.095-.053 1.344.441.861 1.7 1.89 2.676 2.825 2.676 2.365 0 5-5.75 5-14s-2.635-14-5-14c-1.654 0-3.382 2.84-4.3 7.067-.117.54-.648.883-1.189.765-.54-.117-.882-.649-.765-1.189 1.175-5.412 3.513-8.643 6.254-8.643 3.99 0 7 6.878 7 16 0 9.121-3.01 16-7 16zM11.98 21.587c-.18 0-.362-.048-.526-.15-6.246-3.873-11.45-9.731-9.31-13.437.586-1.018 1.956-2.221 5.218-2.12.552.015.987.476.972 1.027s-.504.981-1.028.972c-1.776-.044-2.985.349-3.43 1.121-1.106 1.916 2.099 6.687 8.632 10.737.469.291.614.907.323 1.377-.189.305-.517.473-.851.473zM24.991 26.125c-.214 0-.437-.006-.667-.018-.552-.029-.976-.5-.947-1.051.029-.553.503-.979 1.051-.947 1.886.104 3.232-.305 3.696-1.109.492-.852.108-2.312-1.053-4.005-.312-.456-.195-1.078.26-1.391.458-.312 1.078-.193 1.391.26 2.098 3.062 1.774 5.027 1.135 6.136-.573.99-1.88 2.125-4.866 2.125zM7.036 26.124c-2.382 0-4.087-.729-4.892-2.124-1.02-1.767-.394-4.248 1.764-6.989 1.964-2.496 5.015-5.008 8.593-7.073 1.54-.889 3.11-1.657 4.67-2.283.513-.204 1.095.043 1.3.556.206.513-.043 1.095-.556 1.301-1.471.59-2.956 1.317-4.414 2.159-3.362 1.941-6.211 4.277-8.021 6.577-1.571 1.994-2.17 3.772-1.604 4.752.566.981 2.406 1.351 4.917.987 2.897-.417 6.345-1.716 9.707-3.657s6.211-4.277 8.021-6.578c1.57-1.995 2.169-3.772 1.603-4.752-.457-.793-1.782-1.2-3.624-1.114-.545.021-1.02-.401-1.045-.954-.025-.551.401-1.019.953-1.044 3.415-.157 4.843 1.063 5.448 2.112 1.02 1.766.394 4.248-1.764 6.989-1.964 2.495-5.015 5.008-8.593 7.073-3.578 2.065-7.279 3.452-10.421 3.905-.726.105-1.408.157-2.042.157zM16 19c-1.654 0-3-1.346-3-3s1.346-3 3-3 3 1.346 3 3-1.346 3-3 3zm0-4c-.551 0-1 .449-1 1s.449 1 1 1 1-.449 1-1-.449-1-1-1z"/></g></svg>