<svg xmlns:dc="http://purl.org/dc/elements/1.1/" xmlns:cc="http://creativecommons.org/ns#" xmlns:rdf="http://www.w3.org/1999/02/22-rdf-syntax-ns#" xmlns:svg="http://www.w3.org/2000/svg" xmlns="http://www.w3.org/2000/svg" xmlns:sodipodi="http://sodipodi.sourceforge.net/DTD/sodipodi-0.dtd" xmlns:inkscape="http://www.inkscape.org/namespaces/inkscape" viewBox="0 0 100 100" version="1.1" x="0px" y="0px"><g transform="translate(0,-952.36216)"><path d="m 58.612039,958.78648 c -1.796818,-0.92456 -3.689117,-1.42434 -5.630225,-1.42434 -6.26519,0 -11.93579,5.13246 -16.014253,13.39859 1.268805,0.16375 2.58507,0.36708 3.898635,0.62766 3.029073,-5.93894 7.145212,-9.52324 12.113031,-9.52324 7.710563,-1.1e-4 13.301763,8.63636 16.055865,21.32261 1.745423,1.11788 3.413921,2.27636 5.01944,3.4661 -2.546608,-13.65939 -8.298855,-24.19142 -15.442493,-27.86738 z m 28.214219,16.28956 c -3.70385,-1.979 -8.705521,-2.72564 -14.470702,-2.34867 0.494612,1.18716 0.967518,2.41446 1.400275,3.68979 3.925626,-0.20637 7.320991,0.30343 9.962067,1.65287 0.265862,0.13585 0.510694,0.28678 0.760811,0.43928 1.483159,0.90431 2.689548,2.0863 3.563047,3.59915 2.765572,4.79035 1.153643,10.87796 -3.533357,17.15507 -5.042607,-5.85819 -11.992133,-11.59042 -20.288852,-16.38054 -1.880378,-1.08572 -3.761206,-2.0998 -5.644845,-3.01558 2.294128,-0.84482 4.536299,-1.55502 6.691986,-2.10193 -0.368428,-1.11068 -0.759686,-2.16322 -1.180184,-3.15683 -0.09222,-0.21852 -0.199059,-0.40374 -0.293753,-0.61596 -1.76083,0.40397 -3.567433,0.89307 -5.394503,1.47113 -0.52419,-1.43615 -1.525446,-2.70687 -2.952936,-3.531 -3.227458,-1.8634 -7.35428,-0.75755 -9.217564,2.46991 -0.10459,0.18163 -0.199284,0.37877 -0.285993,0.56535 -14.754332,-4.29136 -27.490745,-2.78199 -31.926727,4.90147 -3.394914,5.88023 -1.229218,14.16952 4.947688,22.49795 -2.854642,3.8488 -4.839723,7.6876 -5.826135,11.2863 -2.224401,0.5959 -4.2210658,2.0394 -5.4632174,4.1911 -2.4845283,4.3033 -1.010141,9.8057 3.2931354,12.2901 2.909975,1.6801 6.368994,1.5531 9.071699,-0.038 3.59015,1.6368 8.244648,2.2723 13.535348,1.9303 -0.496186,-1.1893 -0.948736,-2.4422 -1.38273,-3.7201 -3.482411,0.1776 -6.566703,-0.208 -9.057192,-1.2522 0.04386,-0.071 0.08097,-0.1409 0.123484,-0.2129 2.484416,-4.3033 1.010028,-9.8057 -3.293248,-12.2903 -0.897566,-0.5182 -1.856424,-0.8355 -2.820229,-1.0194 0.758673,-2.588 2.236997,-5.3197 4.294954,-8.0718 5.042607,5.8585 11.992133,11.5908 20.288851,16.3808 1.893987,1.0935 3.795957,2.0817 5.692868,3.0028 -2.309761,0.8521 -4.570939,1.5648 -6.740009,2.1146 0.368541,1.1108 0.759799,2.1634 1.180297,3.157 0.09222,0.2184 0.198947,0.4037 0.293641,0.6159 3.477687,-0.7966 7.095953,-1.9555 10.78687,-3.4305 6.471447,2.5906 12.763628,4.1558 18.379571,4.6458 0.3754,1.8222 1.472363,3.4879 3.210138,4.4913 3.227345,1.8633 7.35428,0.7575 9.217564,-2.4699 0.610673,-1.0576 0.923432,-2.2217 0.926243,-3.3612 3.225771,-1.1972 5.734254,-3.1138 7.25745,-5.7523 3.398513,-5.8863 1.213473,-14.1787 -4.978166,-22.5157 6.180506,-8.32568 8.38129,-16.60508 4.986825,-22.48441 -1.164664,-2.01713 -2.919197,-3.60601 -5.113908,-4.77866 z m -24.855854,11.70277 c 8.213383,4.74211 15.130408,10.17833 19.974068,15.59029 -1.296134,1.4456 -2.74263,2.8883 -4.321833,4.3224 -0.09559,2.0476 -0.245731,4.0544 -0.471331,6.0181 2.764223,-2.3688 5.205678,-4.8179 7.334149,-7.2909 4.705668,6.2946 6.322771,12.3848 3.550226,17.1868 -1.063899,1.8429 -2.626344,3.1885 -4.578024,4.1339 -0.549268,-0.7901 -1.29096,-1.4757 -2.179529,-1.9887 -3.227345,-1.8633 -7.35428,-0.7576 -9.217676,2.4699 -0.178141,0.3084 -0.293753,0.613 -0.418137,0.9353 -3.990293,-0.4465 -8.421439,-1.5774 -13.10664,-3.3061 1.896011,-0.9202 3.784036,-1.9206 5.67611,-3.0129 0.974266,-0.5626 1.922439,-1.1306 2.85858,-1.7179 0.384398,-1.905 0.687822,-3.9096 0.942101,-5.9898 -1.932224,1.2993 -3.940022,2.5885 -6.054435,3.8092 -3.027049,1.7475 -6.041052,3.2878 -9.000511,4.6243 -2.956759,-1.3351 -5.963003,-2.8747 -8.981167,-4.6172 -8.212708,-4.7416 -15.148177,-10.1486 -19.991838,-15.5599 1.307268,-1.4576 2.74398,-2.90558 4.339378,-4.35297 0.09559,-2.05886 0.261363,-4.07442 0.488988,-6.04837 -2.775694,2.37679 -5.217824,4.83917 -7.351693,7.32122 -4.70578,-6.29454 -6.322883,-12.38463 -3.550339,-17.18668 3.964314,-6.8663 14.7414,-7.24294 27.571831,-2.91121 0.105715,0.48404 0.224476,0.97674 0.433881,1.42727 -1.394088,0.70986 -2.791101,1.44975 -4.181704,2.25262 -0.964031,0.55658 -1.914454,1.10675 -2.841035,1.6874 -0.385298,1.90467 -0.687148,3.90954 -0.942101,5.98965 1.923339,-1.29186 3.933611,-2.56437 6.036778,-3.77863 1.770052,-1.02195 3.550451,-1.97811 5.304983,-2.86218 2.129146,0.95694 4.530564,0.72752 6.405769,-0.48146 2.078875,1.01847 4.169108,2.12296 6.271151,3.33655 z m 8.780758,8.47846 c 0.15756,2.30965 0.203895,4.67058 0.203895,7.09773 -2.25e-4,8.5247 -0.981575,16.4362 -2.826753,22.9604 1.138911,0.234 2.272874,0.415 3.336659,0.5467 0.226163,0.028 0.435794,0.031 0.65802,0.055 2.111714,-6.8538 3.334972,-14.9182 3.335085,-23.5597 0,-1.0971 0.0135,-2.1836 -0.02474,-3.26086 -1.455606,-1.28804 -3.008943,-2.57653 -4.682164,-3.8396 z m -32.93282,-15.84848 c -1.138911,-0.23393 -2.272873,-0.41488 -3.336771,-0.54669 -0.226163,-0.0281 -0.435794,-0.0315 -0.65802,-0.0551 -2.111714,6.85382 -3.335085,14.91819 -3.334972,23.5597 -1.13e-4,1.097 -0.0135,2.1836 0.02474,3.2607 1.455718,1.2882 3.008942,2.5766 4.682163,3.8396 -0.15756,-2.3096 -0.203895,-4.6705 -0.203895,-7.0977 2.25e-4,-8.52468 0.981576,-16.43621 2.826865,-22.96029 z m 42.33516,47.28981 c 2.151638,1.2422 2.88872,3.9935 1.646568,6.1451 -1.242264,2.1515 -3.993554,2.8887 -6.14508,1.6466 -2.151526,-1.2423 -2.888832,-3.9936 -1.646568,-6.1451 1.242152,-2.1516 3.993442,-2.8888 6.14508,-1.6466 z m -11.174529,7.265 c -1.268805,-0.1639 -2.58507,-0.3672 -3.898523,-0.6276 -3.029186,5.9388 -7.145437,9.5231 -12.113144,9.5231 -7.710562,1e-4 -13.301763,-8.6363 -16.055864,-21.3226 -1.74531,-1.1178 -3.413921,-2.2763 -5.01944,-3.466 3.187196,17.0949 11.414412,29.2916 21.072718,29.2917 6.265303,0 11.935789,-5.1325 16.014253,-13.3986 z m -51.264819,-15.516 c 2.151638,1.2422 2.888832,3.9934 1.64668,6.145 -1.242264,2.1517 -3.993553,2.8889 -6.145079,1.6466 -2.151525,-1.2421 -2.888832,-3.9934 -1.646567,-6.1451 1.242151,-2.1516 3.993441,-2.8887 6.144966,-1.6465 z" style="color:black;enable-background:accumulate;" display="inline" overflow="visible" visibility="visible" fill="black" stroke="none" marker="none"></path></g></svg>