<svg xmlns="http://www.w3.org/2000/svg" xmlns:xlink="http://www.w3.org/1999/xlink" version="1.1" x="0px" y="0px" viewBox="0 0 100 100" enable-background="new 0 0 100 100" xml:space="preserve"><path fill-rule="evenodd" clip-rule="evenodd" fill="#000000" d="M38.629,16.721c0-5.234,4.243-9.477,9.477-9.477  c5.236,0,9.478,4.243,9.478,9.477c0,5.235-4.242,9.478-9.478,9.478C42.872,26.199,38.629,21.956,38.629,16.721L38.629,16.721z"/><path fill="#000000" stroke="#010101" stroke-width="0.48" stroke-linejoin="round" stroke-miterlimit="10" d="M38.629,16.721  c0-5.234,4.243-9.477,9.477-9.477c5.236,0,9.478,4.243,9.478,9.477c0,5.235-4.242,9.478-9.478,9.478  C42.872,26.199,38.629,21.956,38.629,16.721L38.629,16.721z"/><path fill-rule="evenodd" clip-rule="evenodd" fill="#000000" d="M19.673,84.221c0-5.235,4.244-9.479,9.478-9.479  s9.478,4.243,9.478,9.479c0,5.233-4.243,9.477-9.478,9.477S19.673,89.454,19.673,84.221L19.673,84.221z"/><path fill="#000000" stroke="#010101" stroke-width="0.48" stroke-linejoin="round" stroke-miterlimit="10" d="M19.673,84.221  c0-5.235,4.244-9.479,9.478-9.479s9.478,4.243,9.478,9.479c0,5.233-4.243,9.477-9.478,9.477S19.673,89.454,19.673,84.221  L19.673,84.221z"/><path fill-rule="evenodd" clip-rule="evenodd" fill="#000000" d="M71.775,74.742c0-5.235,4.244-9.478,9.479-9.478  s9.477,4.242,9.477,9.478c0,5.233-4.242,9.479-9.477,9.479S71.775,79.976,71.775,74.742L71.775,74.742z"/><path fill="#000000" stroke="#010101" stroke-width="0.48" stroke-linejoin="round" stroke-miterlimit="10" d="M71.775,74.742  c0-5.235,4.244-9.478,9.479-9.478s9.477,4.242,9.477,9.478c0,5.233-4.242,9.479-9.477,9.479S71.775,79.976,71.775,74.742  L71.775,74.742z"/><path fill-rule="evenodd" clip-rule="evenodd" fill="#000000" d="M8.841,59.647c0-5.234,4.243-9.478,9.478-9.478  c5.234,0,9.478,4.244,9.478,9.478s-4.244,9.477-9.478,9.477C13.084,69.124,8.841,64.882,8.841,59.647L8.841,59.647z"/><path fill="#000000" stroke="#010101" stroke-width="0.48" stroke-linejoin="round" stroke-miterlimit="10" d="M8.841,59.647  c0-5.234,4.243-9.478,9.478-9.478c5.234,0,9.478,4.244,9.478,9.478s-4.244,9.477-9.478,9.477  C13.084,69.124,8.841,64.882,8.841,59.647L8.841,59.647z"/><line fill="#000000" stroke="#010101" stroke-width="1.8" stroke-linejoin="round" stroke-miterlimit="10" x1="48.132" y1="15.333" x2="18.319" y2="59.646"/><line fill="#000000" stroke="#010101" stroke-width="1.8" stroke-linejoin="round" stroke-miterlimit="10" x1="48.132" y1="16.722" x2="80.5" y2="74.616"/><line fill="#000000" stroke="#010101" stroke-width="1.8" stroke-linejoin="round" stroke-miterlimit="10" x1="27.87" y1="84.553" x2="81.253" y2="74.616"/><line fill="#000000" stroke="#010101" stroke-width="1.8" stroke-linejoin="round" stroke-miterlimit="10" x1="29.151" y1="84.314" x2="17.167" y2="59.646"/><line fill="#000000" stroke="#010101" stroke-width="1.8" stroke-linejoin="round" stroke-miterlimit="10" x1="18.319" y1="57.333" x2="80.087" y2="73.878"/><line fill="#000000" stroke="#010101" stroke-width="1.8" stroke-linejoin="round" stroke-miterlimit="10" x1="48.132" y1="15.333" x2="27.822" y2="85"/></svg>