<svg xmlns="http://www.w3.org/2000/svg" xmlns:xlink="http://www.w3.org/1999/xlink" version="1.1" x="0px" y="0px" viewBox="0 0 100 125" enable-background="new 0 0 100 100" xml:space="preserve"><g><path fill="#000000" d="M15.2,52.1c0.1,1,0.2,1.9,0.3,2.9l7.7-1.2c-0.1-0.7-0.2-1.5-0.2-2.3L15.2,52.1z"/><path fill="#000000" d="M16.3,40.5l7.5,2c0.2-0.7,0.4-1.5,0.7-2.2l-7.3-2.7C16.9,38.7,16.6,39.6,16.3,40.5z"/><path fill="#000000" d="M39.9,24.6L37,17.4c-0.9,0.4-1.8,0.8-2.7,1.2l3.5,6.9C38.5,25.2,39.2,24.8,39.9,24.6z"/><path fill="#000000" d="M51,22.6l0.3-7.8c-1,0-2,0-2.9,0l0.4,7.7C49.4,22.6,50.2,22.6,51,22.6z"/><path fill="#000000" d="M65.3,18.4c-0.9-0.4-1.8-0.8-2.7-1.2l-2.8,7.2c0.7,0.3,1.4,0.6,2.1,0.9L65.3,18.4z"/><path fill="#000000" d="M82.6,37.4l-7.2,2.8c0.3,0.7,0.5,1.4,0.7,2.2l7.5-2.1C83.3,39.2,83,38.3,82.6,37.4z"/><path fill="#000000" d="M23,27.6l6,4.9c0.5-0.6,1-1.2,1.5-1.7l-5.6-5.4C24.3,26.2,23.6,26.9,23,27.6z"/><path fill="#000000" d="M74.8,25.2l-5.5,5.5c0.5,0.5,1,1.1,1.5,1.7l5.9-5C76.1,26.6,75.5,25.9,74.8,25.2z"/><path fill="#000000" d="M77.1,51.3L77.1,51.3c0,0.8-0.1,1.6-0.2,2.3l7.7,1.1c0.1-1,0.2-1.9,0.3-2.9l0-0.1L77.1,51.3z"/><path fill="#000000" d="M50,30.1c-9.7,0-17.6,7.9-17.6,17.6c0,4.8,2.4,9,4.5,12.7c1.8,3.2,3.6,6.3,3.6,9.1v7.3   c0.6,4.7,4.7,8.3,9.5,8.3s8.8-3.6,9.5-8.3v-8.2c0.4-2.1,1.9-4.8,3.4-7.5c2.2-4,4.7-8.6,4.7-13.4C67.6,38,59.7,30.1,50,30.1z    M50,81.6c-2.7,0-5-1.8-5.8-4.3h11.6C55,79.8,52.7,81.6,50,81.6z M56.1,73.4H44v-2h12.1V73.4z M59.8,59.5c-1.6,2.9-3.1,5.7-3.6,8.4   h-4.4V53.4c0.7-0.6,1.2-1.4,1.2-2.4c0-1.7-1.4-3.1-3.1-3.1c-1.7,0-3.1,1.4-3.1,3.1c0,1.1,0.6,2.1,1.5,2.7v14.2h-4.4   c-0.5-3.2-2.2-6.2-3.9-9.1c-2-3.5-4.1-7.2-4.1-11c0-7.8,6.3-14.1,14.1-14.1c7.8,0,14.1,6.3,14.1,14.1   C64.1,51.6,61.9,55.6,59.8,59.5z"/></g><text x="0" y="115" fill="#000000" font-size="5px" font-weight="bold" font-family="'Helvetica Neue', Helvetica, Arial-Unicode, Arial, Sans-serif">Created by Estelle Philibert</text><text x="0" y="120" fill="#000000" font-size="5px" font-weight="bold" font-family="'Helvetica Neue', Helvetica, Arial-Unicode, Arial, Sans-serif">from the Noun Project</text></svg>