<svg xmlns="http://www.w3.org/2000/svg" xmlns:xlink="http://www.w3.org/1999/xlink" version="1.1" x="0px" y="0px" viewBox="0 0 32 32" enable-background="new 0 0 32 32" xml:space="preserve"><g display="none"><path display="inline" fill-rule="evenodd" clip-rule="evenodd" d="M29.727,18.654l-2.172-3.563c-0.666-1.088-1.748-1.088-2.414,0   l-2.172,3.563c-0.664,1.086-0.119,1.978,1.205,1.978h0.512c0,3.994-2.691,6.629-6.686,7.367V11.633c-0.002,0-0.004,0-0.006,0.002   C20.322,10.809,22,8.609,22,6c0-3.312-2.686-6-6-6c-3.314,0-6,2.688-6,6c0,2.609,1.678,4.809,4.006,5.635   c-0.002-0.002-0.004-0.002-0.006-0.002V28c-3.994-0.738-6.684-3.373-6.684-7.367h0.508c1.328,0,1.871-0.892,1.207-1.978   l-2.172-3.563c-0.664-1.088-1.75-1.088-2.414,0l-2.172,3.563c-0.664,1.086-0.121,1.978,1.205,1.978h0.51C3.988,26.9,9.375,32,16,32   c6.621,0,12.01-5.1,12.01-11.367h0.512C29.848,20.633,30.391,19.74,29.727,18.654z M16,8c-1.106,0-2-0.894-2-2c0-1.105,0.894-2,2-2   s2,0.895,2,2C18,7.106,17.106,8,16,8z"/></g><g><path d="M29.662,2.393c-1.514-1.514-3.521-2.344-5.656-2.344c-2.137,0-4.146,0.83-5.656,2.342l-7.072,7.072   c-3.119,3.119-3.119,8.193-0.002,11.313c0.504,0.504,1.078,0.902,1.678,1.248l3.033-3.031c-0.688-0.168-1.344-0.508-1.883-1.045   c-0.498-0.498-0.818-1.1-1-1.732v-0.004c-0.064-0.225-0.107-0.449-0.131-0.678c-0.002-0.008-0.002-0.016-0.002-0.023   c-0.021-0.223-0.027-0.443-0.012-0.668c0.002-0.018,0.004-0.035,0.006-0.053c0.018-0.217,0.051-0.432,0.104-0.644   c0.004-0.018,0.012-0.035,0.016-0.053c0.176-0.658,0.504-1.285,1.019-1.801l7.072-7.072c0.781-0.779,1.805-1.17,2.83-1.17   c1.021,0,2.045,0.391,2.826,1.17c1.562,1.562,1.562,4.096,0,5.658l-2.457,2.457c0.066,0.172,0.107,0.35,0.164,0.523l0.002,0.004   c0.014,0.047,0.027,0.094,0.043,0.141c0.342,1.113,0.486,2.266,0.432,3.42v0.002c-0.004,0.057-0.01,0.113-0.016,0.17   c-0.018,0.281-0.029,0.562-0.07,0.842l4.731-4.731C32.779,10.586,32.779,5.51,29.662,2.393z M19.047,9.975l-3.033,3.033   c0.688,0.168,1.344,0.506,1.883,1.043c0.498,0.5,0.818,1.1,1,1.733v0.006c0.064,0.223,0.107,0.447,0.131,0.676   c0.002,0.008,0.002,0.016,0.002,0.023c0.022,0.223,0.027,0.445,0.012,0.668c-0.002,0.02-0.004,0.037-0.006,0.055   c-0.018,0.217-0.051,0.43-0.104,0.643c-0.004,0.02-0.012,0.037-0.016,0.055c-0.176,0.658-0.504,1.283-1.02,1.801l-7.072,7.07   c-0.781,0.781-1.805,1.172-2.828,1.172c-1.023,0-2.047-0.391-2.828-1.172c-1.562-1.562-1.562-4.094,0-5.656l2.457-2.459   c-0.066-0.172-0.107-0.35-0.164-0.523v-0.002c-0.016-0.047-0.029-0.096-0.045-0.143c-0.342-1.111-0.486-2.266-0.43-3.418   c0-0.002,0-0.002,0-0.002c0.002-0.059,0.01-0.115,0.014-0.172c0.018-0.281,0.029-0.562,0.07-0.842l-4.73,4.732   c-3.119,3.119-3.119,8.193-0.002,11.312c1.514,1.512,3.521,2.344,5.658,2.344s4.144-0.832,5.656-2.342l7.072-7.072   c3.117-3.119,3.117-8.195,0-11.312C20.221,10.721,19.646,10.322,19.047,9.975z"/></g></svg>