<svg xmlns="http://www.w3.org/2000/svg" xmlns:xlink="http://www.w3.org/1999/xlink" version="1.1" x="0px" y="0px" viewBox="0 0 60 75" enable-background="new 0 0 60 60" xml:space="preserve"><rect x="-730" y="-91" display="none" fill="#000000" width="802" height="805"/><path d="M51.9501953,16.253418c-1.4683838,0-2.8356323,0.4281616-3.9963379,1.1565552l-3.6744995-5.0924683  c1.0935669-0.9620361,1.7987671-2.3549805,1.7987671-3.9224854c0-2.8925781-2.3535156-5.2460938-5.2460938-5.2460938  s-5.2460938,2.3535156-5.2460938,5.2460938c0,2.0988159,1.2470703,3.9002075,3.0320435,4.7381592l-1.4596558,4.1084595  l-6.5050659-2.7887573c0.2838135-0.8031616,0.4356079-1.6422729,0.4356079-2.5056152  c0-4.1625977-3.3867188-7.5493164-7.5498047-7.5493164s-7.5498047,3.3867188-7.5498047,7.5493164  c0,1.0327148,0.2094116,2.0171509,0.5864868,2.9144897l-6.3947144,3.1901245  c-0.9281616-1.4805298-2.5622559-2.4747314-4.4349365-2.4747314C2.8535156,15.5771484,0.5,17.9306641,0.5,20.8232422  s2.3535156,5.2456055,5.2460938,5.2456055c0.1817017,0,0.3536377-0.0355225,0.5306396-0.0536499l1.2258301,6.1201172  c-3.2088013,0.8695679-5.5797119,3.7993164-5.5797119,7.2797241c0,4.1625977,3.3867188,7.5493164,7.5488281,7.5493164  c2.1340332,0,4.0599976-0.8937378,5.4344482-2.3218994l4.7376709,3.9872437  c-0.5861206,0.8466187-0.9338379,1.869873-0.9338379,2.9752808c0,2.8925781,2.3535156,5.2460938,5.2460938,5.2460938  s5.2451172-2.3535156,5.2451172-5.2460938c0-1.9694824-1.1035156-3.6682739-2.7126465-4.5650635l2.0680542-4.74823  c1.1436768,0.4353027,2.378418,0.6843872,3.6729126,0.6843872c5.7177734,0,10.3701172-4.6523438,10.3701172-10.3706055  c0-1.2774048-0.2432251-2.4962158-0.6675415-3.6271973l3.4424438-1.4801025  c1.1032715,1.9556274,3.0518188,3.3670044,5.3469238,3.7452393l-0.5697021,5.8394775  c-0.0028076,0-0.0053711-0.0008545-0.0081787-0.0008545c-2.8925781,0-5.2460938,2.3530273-5.2460938,5.2456055  s2.3535156,5.2460938,5.2460938,5.2460938s5.2451172-2.3535156,5.2451172-5.2460938  c0-2.5488281-1.828125-4.6738281-4.241272-5.144104l0.5700684-5.8427734  c0.0780029,0.0023804,0.1541748,0.0117798,0.2327271,0.0117798c4.1630859,0,7.5498047-3.3867188,7.5498047-7.5498047  C59.5,19.6401367,56.1132812,16.253418,51.9501953,16.253418z M54.3886719,42.3276367  c0,2.3413086-1.9042969,4.2460938-4.2451172,4.2460938s-4.2460938-1.9047852-4.2460938-4.2460938  c0-2.3408203,1.9052734-4.2456055,4.2460938-4.2456055S54.3886719,39.9868164,54.3886719,42.3276367z M36.5859375,8.3950195  c0-2.3413086,1.9052734-4.2460938,4.2460938-4.2460938s4.2460938,1.9047852,4.2460938,4.2460938  c0,2.3408203-1.9052734,4.2456055-4.2460938,4.2456055S36.5859375,10.7358398,36.5859375,8.3950195z M39.5598755,13.4666138  c0.4095459,0.1029663,0.8311157,0.1740112,1.2721558,0.1740112c0.9655151,0,1.859375-0.2805176,2.6373291-0.7374268  l3.6704102,5.086853c-0.8646851,0.71698-1.5610352,1.6261597-2.0379639,2.6569214l-7.0232544-3.0108643L39.5598755,13.4666138z   M32.2294922,22.2353516c-5.7177734,0-10.3701172,4.6518555-10.3701172,10.3701172  c0,0.8587036,0.1164551,1.6887817,0.3141479,2.4872437l-5.6364136,1.6862183  c-0.6026611-1.6092529-1.7363281-2.9564209-3.1906128-3.8309937l7.2054443-14.0702515  c0.9169312,0.3966675,1.9262085,0.6188965,2.9871216,0.6188965c2.8546753,0,5.4252319-1.6120605,6.7088623-4.1293335  l6.5748901,2.8186035l-1.5969238,4.494873C34.2764282,22.3934937,33.2714233,22.2353516,32.2294922,22.2353516z   M23.5390625,5.3979492c3.6113281,0,6.5498047,2.9379883,6.5498047,6.5493164c0,0.8959961-0.1777344,1.7646484-0.5283203,2.581543  c-1.0351562,2.4101562-3.3984375,3.9677734-6.0214844,3.9677734c-3.6113281,0-6.5498047-2.9379883-6.5498047-6.5493164  S19.9277344,5.3979492,23.5390625,5.3979492z M1.5,20.8232422c0-2.3413086,1.9052734-4.2460938,4.2460938-4.2460938  s4.2451172,1.9047852,4.2451172,4.2460938c0,2.3408203-1.9042969,4.2456055-4.2451172,4.2456055S1.5,23.1640625,1.5,20.8232422z   M7.2575073,25.8203735c2.15271-0.6536865,3.7337036-2.6335449,3.7337036-4.9971313  c0-0.6633301-0.1365356-1.2924805-0.3621216-1.8771973l6.4005737-3.1930542  c0.6418457,1.0933228,1.5492554,2.008728,2.6351929,2.6617432l-7.2054443,14.0701904  c-0.9170532-0.3968506-1.9265137-0.6192017-2.9877319-0.6192017c-0.3359375,0-0.6643066,0.0297241-0.9887695,0.0724487  L7.2575073,25.8203735z M9.4716797,45.9643555c-3.6113281,0-6.5488281-2.9379883-6.5488281-6.5493164  s2.9375-6.5493164,6.5488281-6.5493164s6.5498047,2.9379883,6.5498047,6.5493164S13.0830078,45.9643555,9.4716797,45.9643555z   M28.2011719,51.6049805c0,2.3413086-1.9042969,4.2460938-4.2451172,4.2460938s-4.2460938-1.9047852-4.2460938-4.2460938  c0-2.3408203,1.9052734-4.2456055,4.2460938-4.2456055S28.2011719,49.2641602,28.2011719,51.6049805z M25.5725098,46.6405029  c-0.5122681-0.1674805-1.0488892-0.2811279-1.6164551-0.2811279c-1.4277954,0-2.7211914,0.5767822-3.6680908,1.5053101  l-4.7394409-3.9887085c0.9213867-1.2515259,1.4729614-2.7911987,1.4729614-4.4609375  c0-0.5776367-0.071228-1.1380615-0.1947021-1.678833l5.6334839-1.6853638  c0.9039307,2.5545654,2.7770996,4.6477661,5.180603,5.8406372L25.5725098,46.6405029z M32.2294922,41.9760742  c-5.1669922,0-9.3701172-4.2036133-9.3701172-9.3706055c0-5.1665039,4.203125-9.3701172,9.3701172-9.3701172  s9.3701172,4.2036133,9.3701172,9.3701172C41.5996094,37.7724609,37.3964844,41.9760742,32.2294922,41.9760742z   M41.5359497,28.0599976c-1.1127319-2.2685547-3.0216064-4.0756836-5.3690186-5.0432739l1.5761719-4.4363403l6.9935303,2.9981079  c-0.2173462,0.7034912-0.3352661,1.4503174-0.3352661,2.2242432c0,0.9868774,0.1956787,1.9275513,0.5415649,2.7924194  L41.5359497,28.0599976z M51.9501953,30.3525391c-3.6113281,0-6.5488281-2.9384766-6.5488281-6.5498047  s2.9375-6.5493164,6.5488281-6.5493164S58.5,20.1914062,58.5,23.8027344S55.5615234,30.3525391,51.9501953,30.3525391z"/><text x="0" y="75" fill="#000000" font-size="5px" font-weight="bold" font-family="'Helvetica Neue', Helvetica, Arial-Unicode, Arial, Sans-serif">Created by Josh Sorosky</text><text x="0" y="80" fill="#000000" font-size="5px" font-weight="bold" font-family="'Helvetica Neue', Helvetica, Arial-Unicode, Arial, Sans-serif">from the Noun Project</text></svg>