<?xml version="1.0" encoding="utf-8"?><!DOCTYPE svg PUBLIC "-//W3C//DTD SVG 1.0//EN" "http://www.w3.org/TR/2001/REC-SVG-20010904/DTD/svg10.dtd"><svg version="1.0" xmlns="http://www.w3.org/2000/svg" xmlns:xlink="http://www.w3.org/1999/xlink" x="0px" y="0px" viewBox="0 0 100 88.379" enable-background="new 0 0 100 88.379" xml:space="preserve"><path d="M100,44.189c0-6.796-10.63-11.822-24.783-14.529c1.155-3.322,2.105-6.538,2.764-9.541C80.174,10.094,79.114,3.263,75,0.888
	C73.981,0.3,72.807,0,71.51,0c-5.62,0-13.46,5.665-21.509,15C41.955,5.665,34.115,0,28.49,0c-1.294,0-2.47,0.3-3.491,0.888
	c-5.891,3.4-4.918,15.141-0.175,28.767C10.651,32.356,0,37.386,0,44.189c0,6.799,10.634,11.822,24.79,14.531
	c-1.161,3.323-2.11,6.536-2.767,9.539c-2.194,10.027-1.136,16.857,2.976,19.231c1.021,0.589,2.197,0.886,3.491,0.886
	c5.625,0,13.464-5.667,21.511-14.998c8.047,9.331,15.886,15,21.509,15c1.297,0,2.472-0.299,3.49-0.888
	c4.114-2.374,5.174-9.204,2.98-19.231c-0.658-3.003-1.608-6.216-2.766-9.539C89.37,56.012,100,50.988,100,44.189z M71.51,2.584
	c0.838,0,1.579,0.187,2.199,0.543c3.016,1.741,3.651,7.733,1.747,16.44c-0.661,3.022-1.628,6.264-2.814,9.63
	c-4.166-0.695-8.585-1.194-13.096-1.49c-2.572-3.887-5.206-7.464-7.834-10.67C59.293,8.176,66.646,2.584,71.51,2.584z
	 M62.312,51.294c-1.375,2.379-2.794,4.684-4.242,6.9c-2.597,0.132-5.287,0.206-8.069,0.206s-5.474-0.074-8.067-0.206
	c-1.452-2.217-2.87-4.521-4.242-6.9c-1.388-2.406-2.669-4.771-3.849-7.081c1.204-2.369,2.477-4.753,3.851-7.13
	c1.37-2.377,2.79-4.68,4.24-6.901c2.593-0.131,5.285-0.205,8.067-0.205s5.473,0.074,8.069,0.205
	c1.448,2.222,2.866,4.524,4.239,6.901c1.37,2.37,2.64,4.747,3.842,7.106C64.949,46.551,63.68,48.928,62.312,51.294z M67.571,47.069
	c1.587,3.303,3,6.558,4.2,9.72c-3.25,0.521-6.758,0.926-10.488,1.203c1.104-1.75,2.194-3.554,3.265-5.404
	C65.61,50.751,66.607,48.907,67.571,47.069z M56.294,60.849c-2.068,3.019-4.182,5.854-6.293,8.444
	c-2.109-2.591-4.22-5.426-6.294-8.444c2.095,0.088,4.196,0.138,6.294,0.138C52.1,60.986,54.202,60.937,56.294,60.849z
	 M38.721,57.992c-3.733-0.277-7.241-0.683-10.49-1.203c1.202-3.157,2.611-6.414,4.197-9.72c0.97,1.858,1.979,3.701,3.026,5.519
	C36.525,54.438,37.615,56.242,38.721,57.992z M32.417,41.338c-1.636-3.389-3.046-6.653-4.226-9.741
	c3.26-0.52,6.781-0.931,10.53-1.212c-1.107,1.751-2.197,3.553-3.268,5.407C34.386,37.639,33.388,39.493,32.417,41.338z
	 M43.711,27.533c2.07-3.019,4.181-5.855,6.29-8.449c2.111,2.594,4.225,5.43,6.293,8.449c-2.093-0.091-4.194-0.14-6.293-0.14
	C47.903,27.394,45.802,27.442,43.711,27.533z M64.548,35.792c-1.07-1.859-2.16-3.656-3.265-5.407
	c3.73,0.281,7.238,0.687,10.488,1.205c-1.2,3.157-2.613,6.419-4.2,9.722C66.607,39.474,65.61,37.629,64.548,35.792z M26.294,3.127
	c0.619-0.359,1.36-0.543,2.196-0.543c4.864,0,12.217,5.592,19.8,14.453c-2.626,3.206-5.262,6.783-7.834,10.67
	c-4.526,0.296-8.962,0.802-13.144,1.5C22.426,15.413,22.276,5.445,26.294,3.127z M2.585,44.189c0-4.637,8.707-9.493,23.096-12.159
	c1.487,3.974,3.268,8.069,5.277,12.14c-2.061,4.14-3.843,8.229-5.323,12.167C11.271,53.673,2.585,48.821,2.585,44.189z
	 M28.49,85.794c-0.848,0-1.564-0.178-2.196-0.538c-3.015-1.742-3.652-7.734-1.746-16.442c0.662-3.023,1.626-6.269,2.814-9.633
	c4.166,0.696,8.586,1.195,13.092,1.491c2.574,3.885,5.207,7.462,7.834,10.671C40.708,80.203,33.354,85.794,28.49,85.794z
	 M75.452,68.813c1.907,8.708,1.272,14.7-1.743,16.442c-0.623,0.355-1.361,0.539-2.199,0.539c-4.864,0-12.217-5.592-19.798-14.452
	c2.628-3.209,5.262-6.786,7.837-10.671c4.508-0.296,8.927-0.795,13.093-1.491C73.828,62.545,74.795,65.79,75.452,68.813z
	 M74.366,56.338c-1.476-3.933-3.254-8.014-5.31-12.148c2.056-4.135,3.834-8.217,5.312-12.148
	c14.361,2.665,23.049,7.519,23.049,12.148C97.417,48.821,88.729,53.673,74.366,56.338z"></path><circle cx="50.001" cy="44.189" r="5.492"></circle></svg>