<svg xmlns="http://www.w3.org/2000/svg" xmlns:xlink="http://www.w3.org/1999/xlink" version="1.1" x="0px" y="0px" viewBox="0 0 100 125" style="enable-background:new 0 0 100 100;" xml:space="preserve"><style type="text/css">
	.st0{fill:none;stroke:#000000;stroke-width:2;stroke-linecap:round;stroke-miterlimit:10;}
	.st1{fill:none;stroke:#000000;stroke-linejoin:round;stroke-miterlimit:10;}
	.st2{fill:none;stroke:#000000;stroke-width:0.75;stroke-miterlimit:10;}
	.st3{fill:none;stroke:#000000;stroke-width:1.25;stroke-linejoin:round;stroke-miterlimit:10;}
	.st4{fill:none;stroke:#000000;stroke-width:2;stroke-miterlimit:10;}
	.st5{stroke:#000000;stroke-linecap:round;stroke-linejoin:round;stroke-miterlimit:10;}
	.st6{fill:none;stroke:#000000;stroke-width:1.25;stroke-linecap:round;stroke-miterlimit:10;}
	.st7{fill:#FFFFFF;stroke:#000000;stroke-width:1.5;stroke-linecap:round;stroke-miterlimit:10;}
	.st8{fill:#FFFFFF;stroke:#000000;stroke-linecap:round;stroke-linejoin:round;stroke-miterlimit:10;}
	.st9{fill:#FFFFFF;stroke:#000000;stroke-linecap:round;stroke-miterlimit:10;}
	.st10{fill:#FFFFFF;stroke:#000000;stroke-width:1.5;stroke-linecap:round;stroke-linejoin:round;stroke-miterlimit:10;}
	.st11{fill:#FFFFFF;stroke:#000000;stroke-width:2;stroke-linecap:round;stroke-miterlimit:10;}
</style><g><path d="M54.7,38.1c-2,0-3.7,3.9-3.7,8.7s1.6,8.7,3.7,8.7c4.8,0,8.7-3.9,8.7-8.7S59.5,38.1,54.7,38.1z M54.7,43.6   c-2.7,0-2.3-1.3-2.1-2.3c0.5-1.8,1.2-2.3,2.1-2.3c2.5,0,4.5,1,4.5,2.3C59.2,42.5,57.2,43.6,54.7,43.6z M54.4,25.9v5.8   c-7.9,0.8-7.9,29.4,0,30.2v5.8c-2.1-0.2-3.8-1.7-5.1-4.1c-2.2-3.8-3.7-9.9-3.7-16.8c0-6.9,1.5-13,3.7-16.8   C50.6,27.6,52.3,26,54.4,25.9z M85.7,46.8c0,17-13.7,30.8-30.7,31V73C69.4,72.8,81,61.1,81,46.8c0-14.4-11.6-26.1-25.9-26.2v-4.8   C72,16,85.7,29.8,85.7,46.8z M54.4,77.8c-17-0.2-30.7-14-30.7-31c0-17,13.7-30.8,30.7-31v4.8c-0.9,0.1-1.8,0.3-2.6,0.8   c-5.2,2.9-9,13.2-9,25.4s3.8,22.6,9,25.4c0.8,0.5,1.7,0.7,2.6,0.8V77.8z M68,62.9c-3.5,2.9-8,4.7-12.9,4.8v-5.7   c8.2-0.2,14.8-6.9,14.8-15.1s-6.6-15-14.8-15.1v-5.8c2,0,4,0.3,5.9,0.9c0.3,0.1,0.6,0.2,0.8,0.3c0.4,0.1,0.7,0.2,1.1,0.4   c0.1,0.1,0.2,0.1,0.4,0.2c0.5,0.2,1,0.4,1.5,0.7c0,0,0.1,0,0.1,0.1c0.6,0.3,1.2,0.7,1.7,1.1c2,1.4,3.7,3,5.1,5   c0.2,0.2,0.3,0.5,0.5,0.7c0.5,0.8,1,1.7,1.5,2.6c0.4,0.9,0.8,1.8,1.1,2.8c0.1,0.2,0.1,0.4,0.2,0.6c0.5,1.8,0.8,3.7,0.8,5.6   c0,2.9-0.6,5.6-1.6,8.1c-0.5,1.3-1.2,2.4-1.9,3.6C70.9,60.1,69.6,61.6,68,62.9z"/></g><text x="0" y="115" fill="#000000" font-size="5px" font-weight="bold" font-family="'Helvetica Neue', Helvetica, Arial-Unicode, Arial, Sans-serif">Created by Meaghan Hendricks</text><text x="0" y="120" fill="#000000" font-size="5px" font-weight="bold" font-family="'Helvetica Neue', Helvetica, Arial-Unicode, Arial, Sans-serif">from the Noun Project</text></svg>