<svg xmlns="http://www.w3.org/2000/svg" xmlns:xlink="http://www.w3.org/1999/xlink" version="1.1" x="0px" y="0px" viewBox="0 0 100 125" enable-background="new 0 0 100 100" xml:space="preserve"><g><path d="M96.589,46.74c-0.399-0.091-0.795-0.098-1.183-0.062l-2.894-12.595c1.736-0.652,2.773-2.488,2.347-4.345   c-0.465-2.023-2.482-3.288-4.506-2.822c-0.405,0.093-0.77,0.263-1.106,0.468l-8.092-9.975c1.271-1.35,1.394-3.455,0.194-4.934   c-1.308-1.612-3.676-1.859-5.288-0.551c-0.332,0.27-0.592,0.591-0.807,0.935L63.572,7.573c0.532-1.775-0.301-3.714-2.036-4.499   c-1.892-0.856-4.119-0.016-4.976,1.875C56.406,5.292,56.325,5.646,56.277,6H43.709C43.462,4.163,41.905,2.74,40,2.74   c-2.076,0-3.76,1.684-3.76,3.76c0,0.305,0.046,0.598,0.115,0.882L24.242,12.87c-0.983-1.572-2.989-2.224-4.724-1.438   c-1.891,0.857-2.729,3.085-1.873,4.977c0.172,0.379,0.411,0.703,0.679,0.993l-8.044,9.755c-1.575-0.979-3.664-0.682-4.875,0.788   c-1.321,1.602-1.093,3.972,0.509,5.293c0.386,0.318,0.817,0.541,1.266,0.682L4.131,46.594c-1.844-0.19-3.591,0.992-4.037,2.845   c-0.485,2.018,0.758,4.049,2.777,4.535c0.41,0.099,0.817,0.108,1.215,0.073l2.908,12.771c-1.736,0.648-2.778,2.483-2.355,4.341   c0.461,2.024,2.477,3.292,4.501,2.831c0.394-0.09,0.748-0.253,1.078-0.449l8.156,10.289c-1.287,1.335-1.434,3.438-0.25,4.932   c1.29,1.627,3.655,1.9,5.282,0.61c0.313-0.248,0.561-0.546,0.772-0.86l11.788,5.799c-0.59,1.758,0.18,3.722,1.889,4.563   c1.863,0.916,4.117,0.148,5.033-1.714c0.185-0.375,0.283-0.768,0.336-1.16h13.067c0.246,1.838,1.804,3.26,3.709,3.26   c2.076,0,3.76-1.684,3.76-3.76c0-0.418-0.084-0.813-0.211-1.189l11.771-5.77c1.03,1.541,3.055,2.134,4.765,1.295   c1.864-0.914,2.636-3.166,1.722-5.03c-0.178-0.363-0.418-0.671-0.685-0.946l8.168-10.342c1.595,0.945,3.677,0.604,4.856-0.891   c1.287-1.629,1.01-3.994-0.62-5.28c-0.313-0.248-0.659-0.42-1.015-0.554l2.898-12.661c1.847,0.17,3.58-1.031,4.006-2.888   C99.878,49.22,98.613,47.203,96.589,46.74z M29.997,83.83l-4.637,1.082l3.969-1.915L29.997,83.83z M58.437,9.925   c0.082,0.037,0.166,0.053,0.249,0.083l-2.048,9.121l-12.759,2.834L41.16,10.059C42.51,9.618,43.516,8.444,43.709,7h12.56   C56.438,8.241,57.212,9.372,58.437,9.925z M74.9,16.098c0.14,0.393,0.332,0.772,0.609,1.115c0.249,0.307,0.545,0.548,0.857,0.754   l-8.89,18.426l-12.369-5.888l2.366-10.537L74.9,16.098z M62.644,65.817l-5.08-6.324l10.82-2.43l-1.542,6.729L62.644,65.817z    M66.556,65.041l-1.007,4.395l-2.263-2.817L66.556,65.041z M24.016,84.09c-0.437-0.552-1.003-0.934-1.617-1.166l1.546-6.636   l4.741,5.909l-4.494,2.167C24.132,84.273,24.085,84.177,24.016,84.09z M24.234,75.05l1.984-8.517l12.885-2.894L39.065,77.19   l-9.455,4.561L24.234,75.05z M11.207,32.727c0.641-0.778,0.91-1.736,0.841-2.668l1.167-0.259L9,38.43v-4.417   C9.834,33.855,10.624,33.433,11.207,32.727z M14.463,29.522l15.059-3.345l3.931,4.895l-4.373,18.77L9,49.823v-9.115L14.463,29.522z    M22.622,18.281c0.137-0.062,0.255-0.146,0.38-0.221l5.822,7.248l-13.799,3.065l4.864-9.96   C20.755,18.701,21.725,18.687,22.622,18.281z M40.217,22.777l0.034-12.207l2.651,11.61L40.217,22.777z M43.125,23.156l0.422,1.846   l-2.778-1.323L43.125,23.156z M43.831,26.244l5.154,22.568l-8.81-10.969l0.037-13.322L43.831,26.244z M72.337,39.813L70.03,49.88   l-7.946-0.007l5.862-12.15L72.337,39.813z M68.381,36.823l8.839-18.321l-4.654,20.313L68.381,36.823z M68.632,55.982l-10.65,2.392   l3.62-7.501l8.199,0.008L68.632,55.982z M70.826,50.881l15.39,0.015l0.037,0.161l-0.236,1.021L69.713,55.74L70.826,50.881z    M40.104,63.415l6.939-1.559L44.15,74.738l-4.083,1.97L40.104,63.415z M50.928,52.828l4.852,6.041l-3.304,0.742L50.928,52.828z    M51.501,59.83l-3.137,0.704L50,53.254L51.501,59.83z M50.631,50.862l9.86,0.009l-3.697,7.664L50.631,50.862z M40.171,39.436   l8.373,10.425l-8.402-0.008L40.171,39.436z M39.139,50.851l-0.033,11.763L26.47,65.452l3.404-14.609L39.139,50.851z M30.106,49.843   l4.143-17.78l4.925,6.132l-0.033,11.656L30.106,49.843z M40.139,50.852l9.209,0.009l0.128,0.16l-2.191,9.757l-7.179,1.612   L40.139,50.852z M48.122,61.614l3.602-0.81l1.277,5.592l-2.561,5.308l-5.141,2.479L48.122,61.614z M52.699,60.586l3.482-0.782   l-2.484,5.15L52.699,60.586z M60.974,49.872l-10.213-0.01l4.123-18.357l12.159,5.788L60.974,49.872z M49.991,48.727l-5.009-21.935   l8.975,4.273L49.991,48.727z M54.183,30.064l-9.484-4.514l-0.597-2.611l12.294-2.731L54.183,30.064z M39.179,36.603l-4.641-5.778   l1.416-6.076l3.229-0.717l0.031,0.015L39.179,36.603z M33.742,29.834l-3.131-3.898l4.26-0.946L33.742,29.834z M8,50H7.468   c-0.143-1-0.742-2.111-1.639-2.711L8,42.755V50z M8,56.414v1.608l-1.918-3.999L8,56.414z M8,54.816l-1.538-1.917   c0.442-0.464,0.783-0.944,0.944-1.612C7.436,51.16,7.44,51,7.457,51H8V54.816z M9,50.823l19.847,0.019l-3.46,14.854l-7.336,1.647   L9,56.062V50.823z M25.135,66.776l-1.697,7.281l-4.691-5.847L25.135,66.776z M40.063,77.819l3.807-1.836l-1.093,4.866l-2.724,0.636   L40.063,77.819z M42.534,81.934l-2.224,9.903c-0.095-0.021-0.19-0.032-0.285-0.045l0.025-9.279L42.534,81.934z M43.616,81.681   l2.266-0.528l-4.018,8.326L43.616,81.681z M43.859,80.598l1.161-5.169l4.723-2.277l-3.302,6.845L43.859,80.598z M51.189,72.453   l2.878-1.388l1.551,6.79l-7.927,1.849L51.189,72.453z M51.887,71.006l1.471-3.048l0.481,2.106L51.887,71.006z M54.054,66.516   l2.953-6.12l4.712,5.868l-6.956,3.355L54.054,66.516z M69.466,56.82l16.302-3.661l-0.392,1.694l-17.38,8.383L69.466,56.82z    M86.766,53.281l0.187,0.812l-0.422,0.203L86.766,53.281z M87.316,50.897L91,50.9v0.059l-3.56,0.8l-0.161-0.701L87.316,50.897z    M87.182,55.093l2.693,11.698c-0.62,0.232-1.19,0.618-1.63,1.176c-0.575,0.729-0.821,1.604-0.79,2.463l-4.919,1.147l3.705-16.031   L87.182,55.093z M91,66.558c-0.051,0.003-0.102-0.001-0.151,0.003l-2.743-11.913L91,53.251V66.558z M87.876,53.647l-0.211-0.915   L91,51.984v0.156L87.876,53.647z M92.085,49.565c-0.025,0.112-0.026,0.224-0.042,0.336H92v-0.728l0.188,0.089   C92.154,49.364,92.109,49.459,92.085,49.565z M91,47.59l-2.63-1.251L91,34.963V47.59z M91,48.697V49.9l-3.452-0.003l0.592-2.561   L91,48.697z M86.767,48.833l-0.556-2.415l1.004,0.478L86.767,48.833z M85.985,49.896l-14.93-0.014l2.206-9.627l11.797,5.616   L85.985,49.896z M73.49,39.255l4.736-20.67c0.184,0.01,0.368,0.018,0.552,0.001l5.994,26.04L73.49,39.255z M39.217,22.94   l-2.559-1.218l2.593-11.131L39.217,22.94z M37.715,23.333l-1.511,0.335l0.221-0.949L37.715,23.333z M35.122,23.909l-5.21,1.157   l-6.122-7.622c0.159-0.167,0.298-0.348,0.422-0.539l11.29,5.374L35.122,23.909z M13.776,28.65l-1.94,0.431   c-0.167-0.471-0.43-0.908-0.785-1.291l7.713-9.354L13.776,28.65z M8,40.477l-2.697,5.522L8,34.785V40.477z M8,60.334v6.259   c-0.01,0.001-0.021,0.003-0.031,0.004L5.227,54.553L8,60.334z M11.727,68.764c-0.511-1.123-1.542-1.908-2.727-2.132v-4.213   l3.012,6.28L11.727,68.764z M9,60.106V57.66l7.964,9.927l-3.951,0.887L9,60.106z M17.661,68.455l5.489,6.841l-1.722,7.394   c-0.507-0.049-1.02,0.011-1.513,0.171l-6.457-13.461L17.661,68.455z M39.062,78.303l-0.009,3.416l-7.976,1.86l-0.824-1.027   L39.062,78.303z M39.05,82.746l-0.025,9.027c-0.384,0.052-0.751,0.175-1.102,0.339l-6.152-7.669L39.05,82.746z M41.576,92.377   l5.557-11.517l8.708-2.03l2.994,13.113c-1.348,0.441-2.351,1.614-2.544,3.057H43.24C43.098,93.949,42.503,92.988,41.576,92.377z    M60,91.74c-0.062,0-0.12,0.016-0.181,0.019l-3.005-13.156l7.009-1.634l-3.395,14.814C60.286,91.768,60.146,91.74,60,91.74z    M56.592,77.628l-1.601-7.009l7.371-3.555l2.902,3.613l-1.193,5.206L56.592,77.628z M66.062,71.671l2.535,3.157l-3.442,0.803   L66.062,71.671z M66.348,70.429l1.362-5.944l17.377-8.381L81.451,71.83l-11.773,2.746L66.348,70.429z M81.2,72.916l-2.27,9.818   c-0.713-0.096-1.461,0.009-2.155,0.35c-0.063,0.031-0.115,0.075-0.176,0.109l-6.227-7.753L81.2,72.916z M79.892,83.014   l2.394-10.352l5.324-1.241c0.17,0.546,0.479,1.047,0.895,1.477l-8.16,10.332C80.2,83.144,80.046,83.079,79.892,83.014z M92,52.769   l0.617-0.298c0.427,0.646,1.056,1.152,1.817,1.438L92,64.543V52.769z M92.611,48.357L92,48.066v-11.75l2.429,10.572   C93.688,47.167,93.052,47.683,92.611,48.357z M87.531,31.422c0.316,1.377,1.357,2.386,2.624,2.754l-2.71,11.722l-1.521-0.724   l-6.176-26.828c0.217-0.082,0.426-0.184,0.629-0.307l8.082,9.963C87.63,28.885,87.239,30.152,87.531,31.422z M74.685,15.121   L57.717,18.89l1.944-8.66c1.384,0.12,2.742-0.535,3.499-1.746l11.67,5.279C74.698,14.203,74.651,14.664,74.685,15.121z    M38.39,9.884l-2.656,11.398L24.637,16c0.227-0.706,0.242-1.474,0.018-2.219l12.07-5.468C37.104,8.996,37.682,9.547,38.39,9.884z    M12.001,69.727l0.455-0.103l6.233,12.994l-7.679-9.688C11.806,72.103,12.195,70.928,12.001,69.727z M24.807,86.068l5.884-1.373   l6.378,7.95c-0.254,0.217-0.47,0.481-0.663,0.769L24.629,87.62C24.796,87.12,24.856,86.593,24.807,86.068z M61.4,92.017   l3.506-15.301l4.386-1.023l6.509,8.104c-1.003,0.99-1.38,2.475-0.922,3.848l-11.757,5.763C62.704,92.784,62.104,92.3,61.4,92.017z"/></g><text x="0" y="115" fill="#000000" font-size="5px" font-weight="bold" font-family="'Helvetica Neue', Helvetica, Arial-Unicode, Arial, Sans-serif">Created by Giorgio Uboldi</text><text x="0" y="120" fill="#000000" font-size="5px" font-weight="bold" font-family="'Helvetica Neue', Helvetica, Arial-Unicode, Arial, Sans-serif">from the Noun Project</text></svg>