<svg xmlns="http://www.w3.org/2000/svg" xmlns:xlink="http://www.w3.org/1999/xlink" xmlns:a="http://ns.adobe.com/AdobeSVGViewerExtensions/3.0/" version="1.1" x="0px" y="0px" viewBox="-1 -1.167 100 100" overflow="visible" enable-background="new -1 -1.167 100 100" xml:space="preserve"><path fill="#000000" d="M49.001,22.768c-1.641,0-2.97-1.329-2.97-2.97V2.97c0-1.64,1.329-2.97,2.97-2.97  c1.64,0,2.969,1.33,2.969,2.97v16.829C51.97,21.439,50.641,22.768,49.001,22.768z"></path><path fill="#000000" d="M49.001,98c-1.641,0-2.97-1.329-2.97-2.97V78.203c0-1.64,1.329-2.97,2.97-2.97c1.64,0,2.969,1.33,2.969,2.97  v16.828C51.97,96.671,50.641,98,49.001,98z"></path><path fill="#000000" d="M95.032,51.968H78.203c-1.64,0-2.97-1.328-2.97-2.969c0-1.64,1.33-2.97,2.97-2.97h16.829  c1.64,0,2.97,1.33,2.97,2.97C98.001,50.64,96.671,51.968,95.032,51.968z"></path><path fill="#000000" d="M19.798,51.968H2.969C1.329,51.968,0,50.64,0,49c0-1.64,1.329-2.97,2.969-2.97h16.829  c1.64,0,2.97,1.33,2.97,2.97C22.768,50.64,21.438,51.968,19.798,51.968z"></path><path fill="#000000" d="M81.549,84.519c-0.76,0-1.52-0.29-2.1-0.87L67.55,71.75c-1.16-1.16-1.16-3.039,0-4.198  c1.159-1.16,3.039-1.16,4.199,0L83.649,79.45c1.16,1.16,1.16,3.04,0,4.199C83.07,84.229,82.309,84.519,81.549,84.519z"></path><path fill="#000000" d="M28.353,31.321c-0.759,0-1.519-0.29-2.099-0.87l-11.9-11.899c-1.16-1.159-1.16-3.039,0-4.199  c1.16-1.16,3.04-1.16,4.2,0l11.9,11.899c1.16,1.159,1.16,3.04,0,4.2C29.873,31.031,29.113,31.321,28.353,31.321z"></path><path fill="#000000" d="M16.454,84.521c-0.76,0-1.52-0.29-2.1-0.87c-1.16-1.159-1.16-3.039,0-4.199l11.899-11.899  c1.16-1.16,3.039-1.16,4.199,0c1.16,1.159,1.16,3.038,0,4.198l-11.899,11.9C17.975,84.231,17.214,84.521,16.454,84.521z"></path><path fill="#000000" d="M69.652,31.324c-0.76,0-1.521-0.29-2.1-0.87c-1.16-1.159-1.16-3.041,0-4.2l11.899-11.9  c1.16-1.161,3.04-1.161,4.199,0c1.16,1.159,1.16,3.04,0,4.199l-11.899,11.9C71.171,31.034,70.412,31.324,69.652,31.324z"></path><path fill="#000000" d="M49.001,68.362C38.326,68.362,29.64,59.676,29.64,49c0-10.675,8.686-19.361,19.361-19.361  c10.676,0,19.361,8.686,19.361,19.361C68.362,59.676,59.677,68.362,49.001,68.362z M49.001,35.579  c-7.401,0-13.422,6.02-13.422,13.421c0,7.4,6.021,13.422,13.422,13.422c7.401,0,13.421-6.021,13.421-13.422  C62.422,41.599,56.402,35.579,49.001,35.579z"></path></svg>