<svg xmlns="http://www.w3.org/2000/svg" xmlns:xlink="http://www.w3.org/1999/xlink" version="1.1" x="0px" y="0px" viewBox="0 0 152.943 203.9175" enable-background="new 0 0 152.943 163.134" xml:space="preserve"><g><path d="M147.113,98.227l-6.957-41.119c1.758-1.318,2.912-3.4,2.912-5.768c0-3.992-3.236-7.228-7.23-7.228   c-0.973,0-1.899,0.199-2.746,0.549l-18.285-18.851c2.157-2.231,3.492-5.262,3.492-8.604c0-6.834-5.56-12.394-12.394-12.394   c-4.602,0-8.617,2.526-10.755,6.26L66.022,4.868C65.456,2.09,63,0,60.055,0c-3.366,0-6.092,2.727-6.092,6.091   c0,1.066,0.3,2.057,0.782,2.929l-26.52,27.448c-0.377-0.057-0.755-0.115-1.149-0.115c-4.21,0-7.623,3.413-7.623,7.624   c0,2.82,1.549,5.255,3.826,6.574L9.479,86.015c-0.352-0.049-0.702-0.107-1.068-0.107c-4.209,0-7.622,3.414-7.622,7.625   c0,3.18,1.948,5.898,4.712,7.042L4.986,137.53C2.081,138.609,0,141.38,0,144.661c0,4.211,3.412,7.624,7.622,7.624   c3.852,0,7.005-2.866,7.517-6.58l63.213-4.178c1.111,2.366,3.498,4.014,6.285,4.014c1.61,0,3.07-0.566,4.251-1.484l25.419,8.576   c0.916,5.937,6.045,10.501,12.233,10.501c6.834,0,12.394-5.56,12.394-12.394c0-3.558-1.516-6.762-3.925-9.024l12.021-29.78   c3.346-0.508,5.914-3.373,5.914-6.861C152.949,101.617,150.418,98.768,147.113,98.227z M59.928,94.262   c-0.454-2.426-1.614-4.604-3.263-6.313l15.394-24.758c0.941,0.318,1.944,0.5,2.994,0.5c1.775,0,3.433-0.506,4.844-1.369   l24.726,31.865c-0.73,0.885-1.28,1.901-1.615,3.025L59.928,94.262z M47.752,106.934c-5.73,0-10.393-4.663-10.393-10.394   s4.662-10.394,10.393-10.394c5.731,0,10.395,4.663,10.395,10.394S53.483,106.934,47.752,106.934z M83.026,59.189   c0.511-0.847,0.88-1.787,1.104-2.781l44.885-2.781c0.297,0.886,0.756,1.688,1.347,2.383l-18.305,35.068   c-0.253-0.022-0.495-0.077-0.755-0.077c-1.123,0-2.186,0.23-3.168,0.617L83.026,59.189z M128.818,49.686l-44.654,2.779   c-0.269-1.284-0.781-2.479-1.52-3.513l16.224-21.555c2.001,1.386,4.424,2.203,7.037,2.203c1.965,0,3.818-0.472,5.471-1.29   l18.372,19.168C129.321,48.15,129.004,48.893,128.818,49.686z M105.905,6.813c5.731,0,10.394,4.663,10.394,10.394   s-4.662,10.394-10.394,10.394s-10.394-4.663-10.394-10.394S100.174,6.813,105.905,6.813z M65.289,9.161l28.398,6.049   c-0.106,0.652-0.176,1.315-0.176,1.997c0,2.673,0.858,5.144,2.304,7.17L79.42,46.117c-1.074-0.571-2.271-0.938-3.548-1.048   c-0.426-0.066-0.859-0.102-1.304-0.102c-0.289,0-0.559,0.057-0.838,0.084L63.416,11.166C64.189,10.652,64.818,9.96,65.289,9.161z    M58.301,11.894c0.271,0.082,0.55,0.151,0.837,0.196l10.493,34.42c-1.644,1.135-2.838,2.833-3.393,4.799   c-0.047,0.136-0.095,0.27-0.135,0.409l-31.531-8.982c-0.29-1.762-1.182-3.304-2.459-4.438L58.301,11.894z M34.041,47.055   l31.825,8.911c0.353,2.037,1.364,3.843,2.811,5.197L53.502,85.571c-1.72-0.906-3.675-1.424-5.75-1.424   c-0.709,0-1.399,0.073-2.076,0.188L31.729,49.977C32.721,49.205,33.526,48.216,34.041,47.055z M27.102,51.598   c0.345,0,0.673-0.055,1.004-0.101l13.843,34.1c-3.244,1.728-5.631,4.853-6.355,8.569l-19.698-2.031   c-0.344-1.854-1.365-3.451-2.787-4.569L27.102,51.598z M11.502,138.128c-0.659-0.391-1.373-0.694-2.143-0.875l0.476-36.243   c2.683-0.508,4.842-2.422,5.735-4.948l19.899,2.05c0.341,2.674,1.534,5.082,3.303,6.945L11.502,138.128z M77.816,137.204   l-63.335,4.183c-0.066-0.14-0.146-0.272-0.221-0.409l27.642-33.517c1.743,0.938,3.735,1.473,5.85,1.473   c2.033,0,3.948-0.501,5.644-1.373l25.387,27.28C78.326,135.554,77.988,136.346,77.816,137.204z M87.473,132.231   c-0.867-0.388-1.822-0.616-2.834-0.616c-0.88,0-1.709,0.177-2.48,0.477L56.84,104.939c1.596-1.726,2.705-3.899,3.117-6.313   l42.853,2.937c0.224,1.019,0.626,1.969,1.172,2.819L87.473,132.231z M90.678,135.182l16.511-27.853   c1.229,0.665,2.614,1.079,4.11,1.079c0.103,0,0.203-0.028,0.301-0.031l9.119,31.429c-3.151,1.685-5.49,4.691-6.277,8.275   l-23.08-7.789c0.14-0.552,0.236-1.119,0.236-1.713C91.599,137.338,91.246,136.188,90.678,135.182z M136.934,150.741   c0,5.731-4.662,10.394-10.394,10.394s-10.394-4.663-10.394-10.394s4.662-10.394,10.394-10.394S136.934,145.01,136.934,150.741z    M131.294,139.298c-1.465-0.611-3.07-0.951-4.754-0.951c-0.58,0-1.146,0.054-1.704,0.131l-9.049-31.353   c1.973-1.199,3.434-3.135,3.973-5.449l19.826,6.13c0.611,1.437,1.71,2.598,3.07,3.347L131.294,139.298z M139.23,103.468   l-19.598-6.142c-0.559-1.956-1.752-3.639-3.385-4.767l17.814-34.237c-2.298-0.806,1.158,0.246,1.778,0.246   c0.055,0,0.106-0.016,0.163-0.016l6.81,40.36C141.034,99.833,139.703,101.475,139.23,103.468z"/><polygon points="103.263,24.051 105.794,20.379 108.398,24.051 112.84,24.051 108.075,17.228 112.666,10.703 108.299,10.703    105.942,14.275 103.66,10.703 99.219,10.703 103.635,17.253 98.971,24.051  "/><polygon points="133.301,144.066 128.934,144.066 126.577,147.639 124.295,144.066 119.854,144.066 124.27,150.617    119.605,157.415 123.897,157.415 126.429,153.743 129.033,157.415 133.475,157.415 128.71,150.592  "/><polygon points="54.513,89.833 50.146,89.833 47.789,93.407 45.507,89.833 41.065,89.833 45.481,96.384 40.817,103.183    45.11,103.183 47.641,99.51 50.246,103.183 54.688,103.183 49.923,96.359  "/></g><text x="0" y="178.134" fill="#000000" font-size="5px" font-weight="bold" font-family="'Helvetica Neue', Helvetica, Arial-Unicode, Arial, Sans-serif">Created by Salvia Santos</text><text x="0" y="183.134" fill="#000000" font-size="5px" font-weight="bold" font-family="'Helvetica Neue', Helvetica, Arial-Unicode, Arial, Sans-serif">from the Noun Project</text></svg>