<svg xmlns="http://www.w3.org/2000/svg" xmlns:xlink="http://www.w3.org/1999/xlink" version="1.1" x="0px" y="0px" viewBox="0 0 100 125" enable-background="new 0 0 100 100" xml:space="preserve"><g><path fill="#000000" d="M50,14.491c-3.551,0-6.458,2.908-6.458,6.487c0,3.243,2.433,5.927,5.536,6.375v10.904   c-2.544,0.196-4.865,1.202-6.71,2.768l-3.719-3.69c1.901-2.544,1.706-6.151-0.587-8.444c-2.516-2.517-6.654-2.544-9.17-0.028   c-2.517,2.517-2.517,6.655,0,9.171c2.376,2.376,6.151,2.517,8.695,0.447l3.663,3.663c-1.678,1.874-2.768,4.278-2.992,6.906H27.353   c-0.447-3.104-3.131-5.508-6.375-5.508c-3.579,0-6.486,2.908-6.486,6.458s2.908,6.486,6.486,6.486c3.355,0,6.123-2.572,6.431-5.844   h10.848c0.167,2.769,1.258,5.285,2.992,7.214l-3.691,3.69c-2.544-2.068-6.291-1.929-8.667,0.448c-2.517,2.516-2.517,6.598,0,9.114   c2.516,2.517,6.654,2.544,9.17,0.028c2.292-2.293,2.46-5.899,0.587-8.444l3.719-3.719c1.845,1.566,4.166,2.572,6.71,2.769v10.904   c-3.103,0.447-5.536,3.159-5.536,6.402c0,3.551,2.908,6.459,6.458,6.459s6.486-2.908,6.486-6.459c0-3.354-2.572-6.123-5.815-6.458   V61.743c2.656-0.168,5.061-1.175,6.962-2.796l3.746,3.719c-1.901,2.544-1.677,6.179,0.615,8.472   c2.517,2.516,6.626,2.488,9.143-0.028s2.517-6.599,0-9.114c-2.376-2.377-6.15-2.545-8.695-0.448l-3.662-3.69   c1.733-1.929,2.823-4.445,2.991-7.214h10.876c0.308,3.271,3.048,5.844,6.402,5.844c3.551,0,6.459-2.936,6.459-6.486   s-2.908-6.458-6.459-6.458c-3.243,0-5.898,2.404-6.374,5.508H61.743c-0.225-2.628-1.286-5.033-2.964-6.906l3.662-3.69   c2.545,2.097,6.319,1.957,8.695-0.419c2.517-2.516,2.517-6.654,0-9.171c-2.517-2.516-6.626-2.488-9.143,0.028   c-2.292,2.292-2.517,5.899-0.615,8.444l-3.746,3.718c-1.901-1.622-4.306-2.656-6.962-2.824v-10.82   c3.243-0.335,5.815-3.104,5.815-6.431C56.486,17.399,53.551,14.491,50,14.491L50,14.491z M50,16.057   c2.712,0,4.921,2.208,4.921,4.921c0,2.628-2.097,4.781-4.697,4.893c-0.14-0.083-0.308-0.112-0.447-0.083   c-0.056,0-0.14,0.028-0.196,0.056c-2.516-0.224-4.474-2.292-4.474-4.865C45.107,18.266,47.288,16.057,50,16.057L50,16.057z    M33.476,28.583c1.258,0,2.489,0.447,3.467,1.426c1.901,1.901,1.901,4.977,0,6.906c-1.929,1.901-5.005,1.929-6.906,0.028   c-1.929-1.929-1.929-5.033,0-6.934C30.988,29.03,32.218,28.555,33.476,28.583L33.476,28.583z M66.552,28.583   c1.258-0.028,2.517,0.447,3.467,1.426c1.929,1.901,1.929,5.005,0,6.934c-1.901,1.901-5.005,1.873-6.934-0.028   c0-0.028-0.028-0.028-0.028-0.056c-0.028-0.028-0.056-0.028-0.056-0.056c-1.817-1.929-1.789-4.921,0.084-6.794   C64.063,29.03,65.294,28.583,66.552,28.583L66.552,28.583z M50.112,39.795L50.112,39.795c2.6,0.028,4.977,1.006,6.766,2.628v0.028   c0.084,0.224,0.252,0.392,0.476,0.476h0.027c1.678,1.761,2.712,4.11,2.796,6.738c0,0.028,0,0.056,0,0.084   c0,0.112,0,0.224,0.028,0.335c-0.028,2.768-1.146,5.284-2.964,7.13c0,0,0,0-0.028,0c0,0.027-0.027,0.027-0.027,0.027   c-0.056,0.057-0.084,0.084-0.14,0.14c0,0.028-0.028,0.028-0.057,0.057c-1.789,1.705-4.222,2.74-6.877,2.768   c-0.112-0.027-0.224-0.027-0.335-0.027h-0.028c-2.572-0.057-4.893-1.035-6.654-2.656v-0.028c-0.084-0.168-0.224-0.308-0.392-0.363   h-0.028c-1.762-1.817-2.852-4.306-2.88-7.046c0-0.056,0.028-0.112,0.028-0.168c0-0.056,0-0.112,0-0.167c0-0.028,0-0.056,0-0.084   c0.084-2.656,1.174-5.089,2.908-6.85c0.028,0,0.056-0.028,0.056-0.028c0.084-0.056,0.14-0.112,0.196-0.195l0.028-0.028   c1.761-1.649,4.11-2.684,6.682-2.74c0.028,0,0.028,0,0.028,0C49.86,39.851,49.972,39.823,50.112,39.795L50.112,39.795z    M20.979,45.107c2.544,0,4.613,1.929,4.865,4.417c-0.112,0.224-0.083,0.476,0.028,0.699c-0.14,2.601-2.265,4.697-4.893,4.697   c-2.712,0-4.92-2.209-4.92-4.921S18.267,45.107,20.979,45.107L20.979,45.107z M79.049,45.107c2.713,0,4.894,2.181,4.894,4.893   s-2.181,4.921-4.894,4.921c-2.655,0-4.809-2.125-4.893-4.781c0.084-0.167,0.084-0.363,0.028-0.559   C74.408,47.064,76.477,45.107,79.049,45.107L79.049,45.107z M33.476,61.631c1.203,0,2.405,0.476,3.355,1.37   c0.083,0.168,0.195,0.308,0.363,0.392c1.649,1.93,1.565,4.781-0.251,6.599c-1.929,1.929-5.005,1.929-6.906,0   c-1.929-1.901-1.929-4.977,0-6.906C30.988,62.135,32.218,61.631,33.476,61.631L33.476,61.631z M66.552,61.631   c1.258,0,2.517,0.504,3.467,1.454c1.929,1.93,1.929,5.005,0,6.906c-1.901,1.929-5.005,1.929-6.934,0   c-1.817-1.817-1.901-4.669-0.28-6.599c0.196-0.084,0.336-0.252,0.42-0.447C64.147,62.078,65.35,61.631,66.552,61.631L66.552,61.631   z M50.167,74.129c2.628,0.112,4.753,2.265,4.753,4.921c0,2.712-2.209,4.894-4.921,4.894s-4.893-2.182-4.893-4.894   c0-2.572,1.985-4.697,4.53-4.893C49.804,74.213,50,74.213,50.167,74.129L50.167,74.129z"/></g><text x="0" y="115" fill="#000000" font-size="5px" font-weight="bold" font-family="'Helvetica Neue', Helvetica, Arial-Unicode, Arial, Sans-serif">Created by artworkbean</text><text x="0" y="120" fill="#000000" font-size="5px" font-weight="bold" font-family="'Helvetica Neue', Helvetica, Arial-Unicode, Arial, Sans-serif">from the Noun Project</text></svg>