<svg xmlns="http://www.w3.org/2000/svg" xmlns:xlink="http://www.w3.org/1999/xlink" version="1.1" x="0px" y="0px" viewBox="0 0 100 125" enable-background="new 0 0 100 100" xml:space="preserve"><g><path fill="#000000" d="M50.044,25.826c-13.272,0-24.03,10.759-24.03,24.03c0,13.272,10.759,24.03,24.03,24.03   s24.031-10.759,24.031-24.03C74.075,36.585,63.316,25.826,50.044,25.826z M50.044,69.797c-10.995,0-19.94-8.945-19.94-19.94   s8.945-19.94,19.94-19.94s19.94,8.945,19.94,19.94S61.039,69.797,50.044,69.797z"/><path fill="#000000" d="M21.284,50c0-1.133-0.918-2.051-2.051-2.051H3.051C1.918,47.949,1,48.867,1,50   c0,1.133,0.918,2.051,2.051,2.051h16.182C20.366,52.052,21.284,51.133,21.284,50z"/><path fill="#000000" d="M96.949,47.949H80.767c-1.133,0-2.051,0.919-2.051,2.051c0,1.133,0.918,2.051,2.051,2.051h16.182   C98.082,52.052,99,51.133,99,50C99,48.867,98.082,47.949,96.949,47.949z"/><path fill="#000000" d="M50,78.716c-1.133,0-2.051,0.918-2.051,2.052v16.182C47.949,98.082,48.867,99,50,99   s2.051-0.918,2.051-2.051V80.767C52.052,79.634,51.133,78.716,50,78.716z"/><path fill="#000000" d="M50,21.284c1.133,0,2.051-0.918,2.051-2.051V3.051C52.052,1.918,51.133,1,50,1s-2.051,0.918-2.051,2.052   v16.182C47.949,20.366,48.867,21.284,50,21.284z"/><path fill="#000000" d="M26.794,70.305L15.352,81.747c-0.801,0.801-0.801,2.1,0,2.901c0.801,0.801,2.1,0.801,2.901,0l11.442-11.442   c0.801-0.801,0.801-2.1,0-2.901S27.595,69.504,26.794,70.305z"/><path fill="#000000" d="M73.206,29.695l11.442-11.442c0.801-0.801,0.801-2.1,0-2.901s-2.1-0.801-2.901,0L70.305,26.794   c-0.801,0.801-0.801,2.1,0,2.901S72.405,30.496,73.206,29.695z"/><path fill="#000000" d="M73.206,70.305c-0.801-0.801-2.1-0.801-2.901,0c-0.801,0.801-0.801,2.1,0,2.901l11.442,11.442   c0.801,0.801,2.1,0.801,2.901,0c0.801-0.801,0.801-2.1,0-2.901L73.206,70.305z"/><path fill="#000000" d="M26.794,29.695c0.801,0.801,2.1,0.801,2.901,0s0.801-2.1,0-2.901L18.253,15.352   c-0.801-0.801-2.1-0.801-2.901,0c-0.801,0.801-0.801,2.1,0,2.901L26.794,29.695z"/></g><text x="0" y="115" fill="#000000" font-size="5px" font-weight="bold" font-family="'Helvetica Neue', Helvetica, Arial-Unicode, Arial, Sans-serif">Created by Cagri Yurtbasi</text><text x="0" y="120" fill="#000000" font-size="5px" font-weight="bold" font-family="'Helvetica Neue', Helvetica, Arial-Unicode, Arial, Sans-serif">from the Noun Project</text></svg>