<svg xmlns="http://www.w3.org/2000/svg" xmlns:xlink="http://www.w3.org/1999/xlink" version="1.1" x="0px" y="0px" viewBox="0 0 91 113.75" enable-background="new 0 0 91 91" xml:space="preserve"><path fill="#000000" d="M80.2,59.4L62,49.6c1.2-2.4,1.8-5.1,1.8-8c0-4.7-1.7-8.9-4.6-12.2l13-10.2c5.5,6.2,17.8,0.8,14.6-8.8  c-3.6-11-20.2-5.6-16.6,5.4c0.2,0.7,0.5,1.4,0.9,2L58,28.2c-3.3-3.1-7.8-5.1-12.7-5.1c-1.1,0-2.2,0.1-3.3,0.3L39,10.2  c1.5-0.7,2.6-2.2,2.6-4.3c0-6.5-9.8-6.5-9.8,0c0,3.5,2.9,5.1,5.5,4.8l3,13.1c-6.6,1.9-11.7,7.3-13.1,14.1l-10.1-3.5  c0.2-0.8,0.3-1.6,0.3-2.6c0-11.3-16.9-11.3-16.9,0c0,9.6,12.3,11,15.9,4.2l10.5,3.6c-0.1,0.6-0.1,1.3-0.1,2c0,4.7,1.8,9,4.7,12.3  l-12.1,5.5C16.6,54,6.6,55,6.6,62.8c0,9,13.5,9,13.5,0c0-0.6-0.1-1.1-0.1-1.6l12.9-5.9c3.3,3,7.7,4.9,12.5,4.9c0.5,0,1.1,0,1.6-0.1  l2,16.2c-1.5,0.2-2.9,1-4.2,2.6c-5.7,7,4.9,15.5,10.6,8.5c3.9-4.9,0-10.5-4.6-11.1l-2-16.4c5.3-1,9.8-4.2,12.5-8.6L79.5,61  c-0.1,0.5-0.2,1.1-0.2,1.7c0,7.5,11.3,7.5,11.3,0C90.5,56.6,83,55.5,80.2,59.4z"/><text x="0" y="106" fill="#000000" font-size="5px" font-weight="bold" font-family="'Helvetica Neue', Helvetica, Arial-Unicode, Arial, Sans-serif">Created by Muharrem Fevzi Çelik</text><text x="0" y="111" fill="#000000" font-size="5px" font-weight="bold" font-family="'Helvetica Neue', Helvetica, Arial-Unicode, Arial, Sans-serif">from the Noun Project</text></svg>