<svg xmlns="http://www.w3.org/2000/svg" xmlns:xlink="http://www.w3.org/1999/xlink" version="1.1" x="0px" y="0px" viewBox="0 0 90 90" enable-background="new 0 0 90 90" xml:space="preserve"><path d="M78,57.703V32.525c2.896-0.342,5.143-2.797,5.143-5.78c0-3.217-2.611-5.824-5.833-5.824c-1.776,0-3.364,0.795-4.435,2.045  L50.439,10.021c0.251-0.65,0.395-1.354,0.395-2.093c0-3.216-2.61-5.825-5.834-5.825c-3.221,0-5.833,2.608-5.833,5.825  c0,0.738,0.143,1.442,0.395,2.092L17.125,22.966c-1.07-1.25-2.658-2.044-4.435-2.044c-3.221,0-5.833,2.607-5.833,5.824  c0,2.983,2.248,5.438,5.143,5.78v25.178c-2.895,0.342-5.143,2.798-5.143,5.78c0,3.218,2.612,5.826,5.833,5.826  c1.87,0,3.531-0.882,4.599-2.248l22.104,12.752c-0.144,0.507-0.226,1.039-0.226,1.592c0,3.219,2.612,5.824,5.833,5.824  c3.224,0,5.834-2.605,5.834-5.824c0-0.553-0.082-1.086-0.227-1.593l22.104-12.752c1.068,1.367,2.729,2.249,4.599,2.249  c3.222,0,5.833-2.608,5.833-5.826C83.143,60.501,80.896,58.045,78,57.703z M14,57.812V32.417c1.277-0.292,2.396-0.999,3.2-1.976  l22.31,12.605c-0.219,0.611-0.344,1.267-0.344,1.954c0,0.607,0.094,1.192,0.266,1.743L16.91,59.468  C16.136,58.657,15.131,58.071,14,57.812z M50.438,42.902l22.271-12.583c0.811,1.038,1.963,1.794,3.291,2.098v25.395  c-1.184,0.271-2.227,0.902-3.014,1.771L50.515,46.888c0.203-0.593,0.319-1.226,0.319-1.888  C50.834,44.259,50.69,43.554,50.438,42.902z M71.856,24.69c-0.242,0.64-0.381,1.331-0.381,2.055c0,0.632,0.104,1.239,0.29,1.809  L49.404,41.188c-0.861-0.992-2.053-1.688-3.404-1.921V13.661c1.355-0.234,2.548-0.932,3.41-1.927L71.856,24.69z M40.59,11.733  c0.863,0.996,2.056,1.694,3.41,1.928v25.606c-1.405,0.243-2.64,0.982-3.509,2.037l-22.31-12.605  c0.219-0.611,0.344-1.267,0.344-1.954c0-0.725-0.139-1.417-0.381-2.057L40.59,11.733z M18.234,65.295  c0.187-0.57,0.292-1.179,0.292-1.812c0-0.837-0.18-1.63-0.498-2.35l22.33-12.616c0.874,1.147,2.161,1.959,3.643,2.215v24.941  c-1.534,0.265-2.86,1.125-3.733,2.337L18.234,65.295z M49.733,78.01c-0.873-1.211-2.199-2.071-3.733-2.336V50.732  c1.43-0.247,2.68-1.01,3.551-2.093l22.362,12.635c-0.28,0.682-0.438,1.427-0.438,2.209c0,0.633,0.104,1.24,0.291,1.812L49.733,78.01  z"/></svg>