<svg xmlns="http://www.w3.org/2000/svg" version="1.1" x="0" y="0" viewBox="0 0 512.9 512.9" enable-background="new 0 0 512.853 517" xml:space="preserve"><path fill="#000000" d="M435.2 317.4c-3.3 0-6.2 1.4-8.3 3.7l-116.1-43.9c2.5-6.2 3.8-12.9 3.8-20 0-3.1-0.3-6.1-0.8-9l41.8-12c4.9 10.3 15.4 17.4 27.6 17.4 16.9 0 30.5-13.7 30.5-30.5s-13.7-30.5-30.5-30.5c-16.9 0-30.5 13.7-30.5 30.5 0 1.4 0.1 2.9 0.3 4.3l-41.6 11.9C304.9 220.9 290 207.2 269 204.1V103.1c16-3.4 26.7-16.9 26.7-33.2 0-18.8-15.1-34-33.9-34 -18.8 0-33.7 15.2-33.7 34 0 16.2 11.9 29.8 26.9 33.2v100.7c-15 1.7-27.5 9.2-36.1 20l-42.1-33.3c0.8-1.9 1.2-4 1.2-6.2 0-8.6-7-15.7-15.7-15.7 -8.6 0-15.7 7-15.7 15.7s7 15.7 15.6 15.7c3.1 0 6-0.9 8.4-2.5l42.9 34c-4.1 7.6-6.5 16.4-6.5 25.7 0 4.8 0.6 9.4 1.8 13.8L99.9 314.1c-4.1-6.4-11.3-10.6-19.4-10.6 -12.8 0-23.1 10.3-23.1 23.1s10.3 23.1 23.1 23.1c12 0 21.9-9.2 23-21l111.1-43.9c5 8.4 12.2 15.3 20.8 19.9l-15.1 41.5c-0.5-0.1-1-0.1-1.6-0.1 -8.6 0-15.7 7-15.7 15.7 0 8.6 7 15.7 15.7 15.7 8.6 0 15.7-7 15.7-15.7 0-4.8-2.2-9.1-5.6-12l15.1-41.5c5.3 1.8 11 2.7 16.9 2.7 4.4 0 8.6-0.5 12.7-1.5l35.7 95.2c-9.6 6-16 16.7-16 28.8 0 18.8 15.2 34 34 34 18.8 0 34-15.2 34-34 0-18.8-15.2-34-34-34 -1.3 0-2.6 0.1-3.9 0.2l-36-95.8c7.9-4.5 14.5-10.9 19.3-18.6l117.5 44.4c0.6 5.6 5.4 9.9 11.1 9.9 6.2 0 11.2-5 11.2-11.2C446.4 322.4 441.4 317.4 435.2 317.4z"/></svg>