<svg xmlns="http://www.w3.org/2000/svg" xmlns:xlink="http://www.w3.org/1999/xlink" version="1.1" x="0px" y="0px" viewBox="0 0 90 90" enable-background="new 0 0 90 90" xml:space="preserve"><g><g><path d="M53.8,85.4H36.1c-0.2,0-0.3,0-0.4-0.1l-16-7.7c-0.4-0.2-0.6-0.7-0.5-1.1c0.1-0.5,0.5-0.8,1-0.8h29.8l19.8-24.8    c0.2-0.3,0.6-0.4,1-0.4c0.4,0.1,0.7,0.4,0.8,0.8l2.1,9.4c0.1,0.3,0,0.6-0.2,0.8L54.6,85C54.4,85.3,54.1,85.4,53.8,85.4z     M36.3,83.4h17l18.2-22.8L70,53.7L51.1,77.3c-0.2,0.2-0.5,0.4-0.8,0.4H24.5L36.3,83.4z"/></g><g><path d="M53.8,85.4c-0.3,0-0.6-0.1-0.8-0.4c-0.3-0.4-0.3-0.9,0-1.2l18.5-23.2l-7.1-31c-0.1-0.4,0.1-0.8,0.4-1    c0.3-0.2,0.7-0.3,1.1-0.1l8.8,4.2c0.3,0.1,0.5,0.4,0.5,0.7l6.7,29.2c0.1,0.3,0,0.6-0.2,0.8L70.6,77.3c-0.1,0.1-0.2,0.2-0.3,0.3    l-16,7.7C54.1,85.4,54,85.4,53.8,85.4z M66.9,31.2l6.7,29.4c0.1,0.3,0,0.6-0.2,0.8L57.3,81.6l11.8-5.7l10.6-13.3l-6.5-28.3    L66.9,31.2z"/></g><g><path d="M80.9,63.8c-0.5,0-0.9-0.3-1-0.8l-6.6-28.8L44.6,20.5c-0.3-0.2-0.6-0.5-0.6-0.9s0.2-0.7,0.6-0.9l8.9-4.3    c0.3-0.1,0.6-0.1,0.9,0l26.9,13c0.3,0.1,0.5,0.4,0.5,0.7l3.9,17.3c0,0.1,0,0.3,0,0.4l-3.9,17.3C81.7,63.5,81.3,63.8,80.9,63.8z     M47.3,19.6l27.3,13.2c0.3,0.1,0.5,0.4,0.5,0.7l5.7,25l2.9-12.8L80,28.9L53.9,16.4L47.3,19.6z"/></g><g><path d="M19.5,52.5c-0.3,0-0.6-0.1-0.8-0.4l-6.2-7.7c-0.2-0.2-0.3-0.5-0.2-0.8l6.7-29.4c0.1-0.3,0.3-0.5,0.5-0.7l16-7.7    c0.1-0.1,0.3-0.1,0.4-0.1h17.7c0.5,0,0.9,0.3,1,0.8c0.1,0.5-0.1,0.9-0.5,1.1L27.7,20.4l-7.2,31.4c-0.1,0.4-0.4,0.7-0.8,0.8    C19.7,52.5,19.6,52.5,19.5,52.5z M14.4,43.5l4.6,5.7l6.8-29.8c0.1-0.3,0.3-0.5,0.5-0.7L49.4,7.7H36.3l-15.4,7.4L14.4,43.5z"/></g><g><path d="M24.6,30.4c-0.2,0-0.4-0.1-0.6-0.2c-0.3-0.2-0.4-0.6-0.4-1l2.2-9.7c0.1-0.3,0.3-0.5,0.5-0.7l27-13c0.3-0.1,0.6-0.1,0.9,0    l16,7.7c0.1,0.1,0.3,0.2,0.3,0.3l11.1,13.9c0.3,0.4,0.3,0.9,0,1.2c-0.3,0.4-0.8,0.5-1.2,0.3L53.9,16.4L25,30.3    C24.9,30.4,24.7,30.4,24.6,30.4z M27.7,20.4L26,27.6l27.5-13.2c0.3-0.1,0.6-0.1,0.9,0l23,11.1l-8.2-10.3L53.8,7.8L27.7,20.4z"/></g><g><path d="M50.4,77.7H20.1c-0.3,0-0.6-0.1-0.8-0.4L8.2,63.5c-0.1-0.1-0.2-0.3-0.2-0.4L4.1,45.8c-0.1-0.5,0.1-0.9,0.5-1.1    c0.4-0.2,0.9-0.1,1.2,0.3l18.6,23.3h31.9c0.4,0,0.7,0.2,0.9,0.6c0.2,0.3,0.1,0.8-0.1,1.1l-6,7.5C50.9,77.6,50.7,77.7,50.4,77.7z     M20.6,75.7h29.3l4.4-5.5H23.9c-0.3,0-0.6-0.1-0.8-0.4L7,49.6l2.9,12.8L20.6,75.7z"/></g><g><path d="M33.7,70.2h-9.7c-0.3,0-0.6-0.1-0.8-0.4L4.3,46.2c-0.2-0.2-0.3-0.5-0.2-0.8L8,28c0-0.1,0.1-0.3,0.2-0.4l11.1-13.9    c0.3-0.4,0.8-0.5,1.2-0.3c0.4,0.2,0.6,0.7,0.5,1.1l-6.6,28.9l20,25.1c0.2,0.3,0.3,0.7,0.1,1.1C34.4,70,34,70.2,33.7,70.2z     M24.4,68.2h7.2l-19-23.8c-0.2-0.2-0.3-0.5-0.2-0.8l5.7-25.1L9.9,28.7L6.1,45.3L24.4,68.2z"/></g></g><text x="0" y="105" fill="#000000" font-size="5px" font-weight="bold" font-family="'Helvetica Neue', Helvetica, Arial-Unicode, Arial, Sans-serif">Created by frederick allen</text></svg>