<svg xmlns:x="http://ns.adobe.com/Extensibility/1.0/" xmlns:i="http://ns.adobe.com/AdobeIllustrator/10.0/" xmlns:graph="http://ns.adobe.com/Graphs/1.0/" xmlns="http://www.w3.org/2000/svg" xmlns:xlink="http://www.w3.org/1999/xlink" xmlns:a="http://ns.adobe.com/AdobeSVGViewerExtensions/3.0/" version="1.1" x="0px" y="0px" viewBox="0 0 512.853 512.853" enable-background="new 0 0 512.853 517" xml:space="preserve"><metadata><?xpacket begin="&#65279;" id="W5M0MpCehiHzreSzNTczkc9d"?><x:xmpmeta xmlns:x="adobe:ns:meta/" x:xmptk="Adobe XMP Core 5.3-c011 66.145661, 2012/02/06-14:56:27        "/><?xpacket end="w"?></metadata><g><path fill="#000000" d="M435.17,317.35c-3.287,0-6.238,1.426-8.287,3.685l-116.105-43.858c2.469-6.173,3.838-12.901,3.838-19.954   c0-3.084-0.272-6.101-0.77-9.041l41.753-12.034c4.901,10.298,15.399,17.415,27.563,17.415c16.857,0,30.516-13.662,30.516-30.517   s-13.658-30.517-30.516-30.517c-16.854,0-30.518,13.662-30.518,30.517c0,1.443,0.111,2.86,0.303,4.251l-41.574,11.938   C304.883,220.945,290,207.208,269,204.098V103.145c16-3.401,26.674-16.949,26.674-33.152c0-18.77-15.138-33.984-33.907-33.984   c-18.769,0-33.669,15.215-33.669,33.984c0,16.226,11.902,29.788,26.902,33.165v100.657c-15,1.71-27.457,9.161-36.068,20.02   l-42.147-33.265c0.812-1.891,1.192-3.973,1.192-6.159c0-8.647-7.044-15.657-15.692-15.657c-8.646,0-15.673,7.01-15.673,15.657   s7.001,15.656,15.649,15.656c3.094,0,5.968-0.91,8.399-2.46l42.871,33.95c-4.146,7.628-6.508,16.371-6.508,25.665   c0,4.772,0.628,9.397,1.795,13.803L99.943,314.091c-4.106-6.382-11.266-10.611-19.42-10.611c-12.751,0-23.086,10.336-23.086,23.087   s10.335,23.086,23.086,23.086c12.047,0,21.932-9.224,22.988-20.993l111.074-43.937c4.993,8.376,12.191,15.282,20.801,19.909   l-15.088,41.525c-0.52-0.053-1.049-0.08-1.581-0.08c-8.647,0-15.658,7.011-15.658,15.656c0,8.646,7.011,15.657,15.658,15.657   c8.649,0,15.655-7.011,15.655-15.657c0-4.797-2.163-9.086-5.561-11.958l15.076-41.493c5.325,1.767,11.013,2.736,16.931,2.736   c4.366,0,8.604-0.533,12.669-1.514l35.744,95.202c-9.619,6.003-16.024,16.675-16.024,28.847c0,18.771,15.215,33.984,33.983,33.984   c18.771,0,33.984-15.214,33.984-33.984c0-18.768-15.214-33.982-33.984-33.982c-1.328,0-2.639,0.084-3.928,0.232l-35.955-95.766   c7.887-4.472,14.533-10.872,19.293-18.567l117.451,44.365c0.639,5.577,5.368,9.911,11.117,9.911c6.187,0,11.2-5.016,11.2-11.199   C446.37,322.362,441.356,317.35,435.17,317.35z"/></g></svg>